<svg width="711" height="580" fill="none" xmlns="http://www.w3.org/2000/svg"><g opacity=".2" clip-path="url(#clip0)"><path d="M700.522 532.384c.198 0 .396.099.593.099l.099-.792c-.296 0-.593-.099-.89-.099a1378.082 1378.082 0 00-17.597-65.929c.198 0 .396 0 .692.099l.099-.891c-.296 0-.692-.099-.988-.099-5.635-19.304-11.172-36.726-16.213-52.664-15.719-49.794-27.088-85.827-25.902-122.059-.494-15.64 1.286-31.182 4.746-47.813h.197v-.891c4.647-21.779 12.061-45.339 20.959-73.354 5.041-15.938 10.578-33.361 16.213-52.763h.098v-.297c4.548-15.443 9.195-32.173 13.742-50.289.494-.099.989-.099 1.483-.198l-.099-.791c-.395.099-.791.099-1.186.197A1421.933 1421.933 0 00710.902.694l.099-.594-.593.099C641.602 14.453 584.164 34.45 533.35 52.169c-39.742 13.86-76.122 26.53-111.019 33.856h-.396v.099c-22.639 4.752-44.685 7.226-66.434 6.336-55.559 2.276-112.206-17.423-177.849-40.29C126.937 34.45 69.401 14.452.594.098L.001 0l.1.594c4.547 22.768 9.39 43.656 14.235 62.96h-.297l-.099.791c.198 0 .396.1.594.1 4.547 17.917 9.194 34.548 13.642 49.892-.197 0-.494 0-.692-.099l-.099.891c.297 0 .692.099.989.099a1598.86 1598.86 0 0012.16 39.795h-1.285v.891c.494 0 .988 0 1.482.099 1.286 4.059 2.57 8.117 3.757 12.077 2.076 6.633 4.152 13.067 6.03 19.205h-.395v.891h.593c12.358 39.795 20.662 70.78 19.575 101.962a169.65 169.65 0 01-.297 17.324h-.395v.891h.395c-.89 12.077-3.065 24.253-6.03 37.321h-.198v.89c-4.647 19.7-11.37 40.984-19.179 65.732a1535.053 1535.053 0 00-3.559 11.186h-.989v.891h.692c-1.977 6.237-3.954 12.671-6.03 19.403-.494 0-.89.099-1.384.099v.891c.395 0 .692 0 1.087-.099a1322.094 1322.094 0 00-12.357 42.27c-.494 0-.989.099-1.483.198l.099.89c.395 0 .79-.099 1.186-.099a1554.357 1554.357 0 00-5.635 21.086c-.494.099-.988.099-1.581.198l.098.792c.396 0 .791-.099 1.187-.198-1.879 7.127-3.658 14.552-5.536 22.174-1.78 7.524-3.658 15.344-5.339 23.363-.494.099-.89.198-1.384.297l.099.792c.395-.099.692-.099 1.087-.198-1.68 7.622-3.262 15.344-4.943 23.362l.1.396.592-.099c34.898-7.227 66.928-16.037 96.685-25.243v.198l.89.099v-.495c8.502-2.673 16.806-5.247 24.913-7.92h.395v-.099c8.502-2.772 16.707-5.543 24.814-8.315h.494v-.198a2192.756 2192.756 0 0023.924-8.316h.791v-.198c1.384-.494 2.768-.989 4.152-1.385 35.392-12.374 68.214-23.759 99.651-31.282l.89-.099v-.099a439.245 439.245 0 0126.198-5.346v.396h.889v-.594a290.05 290.05 0 0125.605-2.97v.099h.89v-.198c8.008-.495 15.916-.693 23.825-.297 11.567-.494 23.133 0 34.898 1.287v.099h.791c10.182 1.089 20.365 2.871 30.844 5.049h.296c11.567 2.475 23.331 5.445 35.293 8.909v.396l.89.099v-.198c12.061 3.465 24.32 7.425 36.875 11.682v.395h.89v-.098c12.159 4.058 24.517 8.414 37.27 12.77 2.175.792 4.448 1.583 6.722 2.276v.198h.593a2625.384 2625.384 0 0047.651 16.235v.693h.89v-.396c17.893 5.841 36.775 11.681 56.547 17.225 0 .396.099.693.099.99l.791-.099c0-.198-.099-.495-.099-.693A972.033 972.033 0 00710.606 580l.593.099-.099-.594c-3.559-16.829-7.019-32.371-10.578-47.121zm4.449 22.868c-21.354-3.861-41.62-8.217-61.096-12.869a2591.785 2591.785 0 00-2.965-20.69c18.783 3.861 38.357 7.524 58.821 10.592 1.681 7.326 3.46 15.047 5.24 22.967zM85.416 289.95c0-.89 0-1.781.099-2.573h15.224c0 .891 0 1.782-.098 2.573.197 5.643.098 11.385-.198 17.126-5.042 0-10.183.099-15.225.099.297-5.741.396-11.483.198-17.225zM225.303 69.295c17.893 5.84 35.095 10.988 52 15.047a546.954 546.954 0 00-1.483 30.886 627.702 627.702 0 01-25.506-4.455c.198-10.79.594-21.877 1.384-33.162l-.889-.1c-.791 11.286-1.187 22.274-1.384 33.064-8.403-1.584-16.807-3.366-25.407-5.147a660.18 660.18 0 011.285-36.133zm372.504 221.546c-.198 5.445-.099 10.791.099 16.235-12.654-.099-25.407-.099-38.061-.198a219.241 219.241 0 010-16.136c0-1.088 0-2.276-.099-3.365h37.962c0 1.188 0 2.276.099 3.464zm59.217 94.341c-15.225-.099-30.35-.297-45.278-.792-1.681-7.326-3.361-14.354-4.844-21.185 14.631.495 29.262.99 44.091 1.584a878.58 878.58 0 006.031 20.393zm-41.422 18.808a1111.96 1111.96 0 014.152 17.126c-15.027-.891-29.856-1.98-44.487-3.168-.989-5.939-1.978-11.78-3.065-17.521 14.236.792 28.571 1.584 43.103 2.178 0 .395.198.89.297 1.385zM82.45 403c5.833-.198 11.567-.396 17.4-.692a1073.44 1073.44 0 00-4.152 18.313c-5.932.396-11.962.693-17.993 1.089a1254.287 1254.287 0 014.152-16.136c.198-.891.396-1.683.593-2.574zm18.981-113.05c0-.89 0-1.781.099-2.573h15.225v2.573c.197 5.643.099 11.385-.198 17.027-5.042 0-10.183 0-15.224.099.197-5.642.296-11.384.098-17.126zm148.883-178.286a1388.146 1388.146 0 0025.506 4.455c-.198 9.899-.198 19.6-.099 29.302-8.304-.792-16.707-1.782-25.209-2.772-.198-10.196-.296-20.492-.198-30.985zm319.515 78.304c-13.148.692-26.197 1.385-39.049 2.177 1.186-8.711 2.372-17.62 3.46-26.926 13.346-1.188 26.791-2.475 40.434-3.563-1.483 8.711-2.966 17.125-4.35 25.441-.198.891-.396 1.881-.495 2.871zm-10.973 100.873c-.198 5.346-.099 10.692 0 16.136-12.16 0-24.221-.099-36.38-.099a427.67 427.67 0 010-15.938c0-1.089 0-2.276-.099-3.365h36.38c.099.99.099 2.078.099 3.266zm-441.409-.891v-2.573h16.114c0 1.089 0 2.277-.099 3.365.198 5.346.099 10.692-.099 16.136-5.338 0-10.776 0-16.114.099.395-5.642.395-11.285.198-17.027zm404.238.891a213.89 213.89 0 000 15.938c-11.864 0-23.727-.099-35.491-.099-.099-5.345-.099-10.592.099-15.839 0-1.089 0-2.177-.099-3.365h35.491v3.365zm7.81 95.826c.494 3.365.889 6.83 1.384 10.295-4.943-.297-9.886-.693-14.829-.99-7.909-.495-15.818-.99-23.628-1.485-.395-4.851-.89-9.701-1.384-14.453v-.099c6.031.297 12.16.594 18.289.99 6.426.297 12.951.693 19.476.99.296 1.485.494 3.168.692 4.752zM424.407 446.26c0-4.256 0-8.513-.099-12.671 11.369.99 22.836 2.178 34.403 3.663.099 4.455.198 9.008.297 13.661-11.666-1.782-23.134-3.366-34.601-4.653zM134.352 290.841c0-1.089 0-2.276.099-3.365h17.794c0 1.089 0 2.276-.098 3.365.197 5.346.098 10.692 0 16.037-5.932 0-11.864 0-17.795.099.197-5.444.197-10.79 0-16.136zm27.285-98.795c1.384 9.405 2.768 18.512 3.954 27.322-6.228-.198-12.456-.296-18.684-.494a2391.805 2391.805 0 00-4.745-27.818c6.524.297 12.95.594 19.475.99zm323.766 98.795c-.099 5.247-.099 10.593-.099 15.839-10.677 0-21.452 0-32.129-.099-.099-5.246-.099-10.493.099-15.839v-3.266h32.129a19.1 19.1 0 000 3.365zm4.844 89.193c.396 4.752.89 9.503 1.285 14.354-11.467-.693-22.836-1.386-34.106-2.079-.297-4.751-.593-9.404-.89-14.156 11.171.495 22.342 1.089 33.711 1.683v.198zm-337.31-89.193c0-1.089 0-2.276.099-3.365h17.795c0 1.089 0 2.276-.099 3.365a216.56 216.56 0 010 16.037c-5.931 0-11.863 0-17.795.099.198-5.444.198-10.79 0-16.136zm299.447 0c-.099 5.247-.099 10.494-.099 15.839h-32.129v-19.105h32.129c.099.99.099 2.177.099 3.266zm-280.861 0c0-1.089 0-2.276.099-3.365h18.586c0 1.287 0 2.573-.099 3.761.197 5.148.197 10.395.099 15.542-6.229 0-12.457 0-18.586.099.099-5.345.099-10.691-.099-16.037zm247.842-.891a465.677 465.677 0 000 16.631h-28.571v-19.006h28.571v2.375zm2.076 81.175c.099 1.584.099 3.266.198 4.85-10.282-.297-20.465-.594-30.746-.792v-16.234c9.985 0 19.97.099 30.053.198.099 4.058.297 8.018.495 11.978zm-237.264 10.592c6.129-.297 12.259-.594 18.388-.99.89 0 1.681-.099 2.57-.099 0 .495-.098.891-.098 1.386-.495 4.356-.89 8.81-1.384 13.364-2.571.198-5.042.297-7.613.495-4.547.297-9.095.594-13.741.891.494-3.465.89-6.93 1.285-10.295.099-1.584.395-3.168.593-4.752zm6.821-90.48c0-1.287.099-2.573.099-3.761h19.476c0 1.089 0 2.276-.099 3.365.099 5.247.099 10.593.099 15.938-6.525 0-12.951 0-19.476.099.099-5.246.099-10.493-.099-15.641zm14.928 89.391c7.613-.396 15.126-.792 22.639-1.188-.395 4.752-.89 9.602-1.285 14.453l-22.837 1.485c.495-4.455.89-8.909 1.384-13.265 0-.495 0-.99.099-1.485zm5.339-89.787c0-1.089 0-2.276.099-3.365h21.946v2.474c.099 5.544.099 11.088.099 16.73-7.315 0-14.631 0-21.947.099 0-5.345 0-10.691-.197-15.938zm68.51 50.586c-8.008.099-15.917.099-23.924.198.296-5.445.494-10.889.692-16.334 7.908 0 15.817-.099 23.726-.099-.099 5.445-.297 10.79-.494 16.235zm1.384-16.235c8.007 0 16.015 0 24.023-.099v16.136c-8.206 0-16.411.099-24.617.198.297-5.445.495-10.79.594-16.235zm-1.483 17.126c-.198 5.345-.495 10.79-.791 16.235l-24.122.297c.297-5.445.692-10.89.989-16.334 8.007-.099 16.015-.198 23.924-.198zm.889 0c8.206-.099 16.411-.099 24.617-.198v16.136c-8.403.099-16.905.099-25.309.198.198-5.346.495-10.791.692-16.136zm25.407-.198c8.404 0 16.708-.099 25.111-.099v16.136c-8.403 0-16.707.099-25.111.099V342.12zm0-.792v-16.136h25.111v16.037c-8.304 0-16.707 0-25.111.099zm.099-17.027v-16.928h25.111v16.928h-25.111zm-.889 0c-8.008 0-16.016 0-24.023.099.197-5.643.296-11.285.296-16.928h23.727v16.829zm-24.814.099c-7.909 0-15.818.099-23.727.099.198-5.643.297-11.384.396-17.027h23.726c-.099 5.643-.296 11.285-.395 16.928zm-24.616.099c-7.415 0-14.73.099-22.145.099.297-5.742.494-11.384.593-17.027h21.947c-.099 5.544-.198 11.186-.395 16.928zm0 .792c-.198 5.445-.396 10.889-.692 16.334l-22.442.297c.396-5.544.692-11.087.989-16.532 7.316 0 14.73 0 22.145-.099zm-.791 17.225c-.297 5.345-.593 10.79-.989 16.334-7.612.099-15.224.198-22.836.396.494-5.544.889-10.989 1.285-16.433l22.54-.297zm-.989 17.126c-.296 5.048-.593 10.097-.988 15.244-.099.891-.099 1.683-.198 2.574-7.711.396-15.521.693-23.331 1.089 0-.297 0-.495.099-.792.494-5.939 1.087-11.879 1.582-17.719 7.612-.099 15.224-.297 22.836-.396zm-.099 15.343c.297-5.147.692-10.196.989-15.343l24.122-.297c-.198 4.256-.396 8.612-.692 12.869-.099 1.386-.099 2.771-.198 4.157-8.107.297-16.213.693-24.32.99-.098-.792 0-1.584.099-2.376zm25.21-2.672c.197-4.356.494-8.712.692-12.968 8.502-.099 16.905-.198 25.407-.198 0 5.444 0 10.889-.099 16.432-8.7.198-17.4.495-26.198.792.099-1.386.099-2.672.198-4.058zm26.889-13.166c8.404-.099 16.807-.099 25.111-.099v16.135c-8.403.099-16.806.198-25.209.396.098-5.543.098-10.988.098-16.432zm26.001-.198h28.57v16.135h-4.646a971.594 971.594 0 00-24.023 0c.099-5.345.099-10.691.099-16.135zm0-.792v-16.136h28.57v16.037c-9.49 0-19.08 0-28.57.099zm0-16.928v-16.037h28.57v16.037c-9.49-.099-19.08-.099-28.57 0zm0-16.928v-16.928h28.57v16.829c-9.49.099-19.08.099-28.57.099zm0-17.72v-19.006h28.57v19.006h-28.57zm-.89 0h-25.111v-19.006h25.111c.099 6.335 0 12.671 0 19.006zm-25.901 0h-23.727v-19.006h23.727v19.006zm-24.518 0h-23.726c.099-5.444.099-10.79 0-16.235v-2.87h23.627v2.87c.198 5.445.198 10.89.099 16.235zm-24.517 0H234.2c.099-5.543.099-11.087-.099-16.631v-2.474h21.947v2.87c.198 5.445.198 10.89.099 16.235zm-22.837.891a486.547 486.547 0 01-.593 17.027c-7.315 0-14.631.099-22.045.099a506 506 0 00.593-17.126c7.414.099 14.73.099 22.045 0zm-.593 17.918c-.296 5.445-.593 10.988-.988 16.532l-22.145.297c.494-5.643.791-11.186 1.088-16.73 7.315 0 14.631 0 22.045-.099zm-1.087 17.423c-.396 5.444-.791 10.889-1.285 16.433-7.415.099-14.829.297-22.343.396.495-5.544.989-11.088 1.483-16.532l22.145-.297zm-1.384 17.225c-.494 5.84-.989 11.681-1.582 17.62 0 .297-.099.594-.099.891-7.513.396-15.026.792-22.639 1.188.692-6.533 1.285-12.968 1.977-19.303 7.514-.099 14.928-.297 22.343-.396zm-.89 19.402c7.81-.396 15.62-.792 23.43-1.089-.297 4.653-.593 9.405-.89 14.156-7.909.495-15.817.891-23.726 1.386.395-4.851.791-9.701 1.186-14.453zm24.221-1.188c8.205-.396 16.312-.693 24.418-.99-.198 4.653-.494 9.207-.692 13.859-8.205.396-16.312.792-24.616 1.287.297-4.751.593-9.503.89-14.156zm25.308-1.089c8.798-.297 17.498-.594 26.198-.792 0 4.554 0 9.108-.099 13.661-8.898.297-17.894.594-26.89.99.297-4.553.494-9.206.791-13.859zm26.989-.792c8.403-.198 16.806-.396 25.209-.396v13.562c-8.403.099-16.806.297-25.209.495v-13.661zm26.099-.396a971.594 971.594 0 0124.023 0h4.646v13.562h-4.646a971.594 971.594 0 00-24.023 0 309.67 309.67 0 010-13.562zm29.46-.099c9.589 0 19.08 0 28.57.198v13.562c-9.589-.198-19.08-.198-28.669-.198.099-4.454.099-9.008.099-13.562zm0-.792v-16.135c9.49 0 19.08 0 28.57.099v16.135c-9.49-.099-19.08-.198-28.57-.099zm0-17.026v-16.037c9.49 0 19.08 0 28.57.099v16.136c-9.589-.099-19.08-.198-28.57-.198zm0-16.928v-16.037h28.57v16.136c-9.589 0-19.08 0-28.57-.099zm0-16.829v-16.829h28.57V324.4c-9.589-.099-19.08-.099-28.57-.099zm0-17.72v-19.006h28.57v19.006h-28.57zm0-19.897v-19.997h28.57v19.997h-28.57zm-.89 0h-28.57v-19.997h28.57v19.997zm-29.361 0h-25.111v-19.997h25.111a673.236 673.236 0 000 19.997zm-26 0h-23.727c.099-6.732 0-13.364-.099-19.997h23.826v19.997zm-24.518 0h-23.627c.099-6.732 0-13.364-.099-20.096h23.726c0 6.732.099 13.364 0 20.096zm-24.517 0H234.2c.099-6.732 0-13.364-.198-20.096 7.316 0 14.731 0 22.046.099.099 6.633.198 13.265.099 19.997zm-22.837 0h-21.946c.098-6.732 0-13.364-.198-20.195 7.316 0 14.73 0 22.046.099.197 6.633.197 13.364.098 20.096zm-22.836 0h-19.476c.099-6.732 0-13.463-.395-20.195 6.525 0 13.05 0 19.574.099a338.87 338.87 0 01.297 20.096zm0 20.887a506 506 0 01-.593 17.126c-6.525 0-13.05.099-19.575.099.396-5.742.692-11.483.791-17.225h19.377zm-.692 18.017a494.817 494.817 0 01-1.186 16.73l-19.871.297c.593-5.643 1.087-11.285 1.384-16.928 6.623-.099 13.148-.099 19.673-.099zm-1.186 17.522a490.392 490.392 0 01-1.483 16.532c-6.723.099-13.544.297-20.267.495.692-5.643 1.286-11.187 1.879-16.631 6.623-.198 13.247-.297 19.871-.396zm-1.582 17.423c-.593 6.335-1.285 12.869-1.977 19.303-.89 0-1.78.099-2.67.099-6.03.297-12.159.594-18.19.99.89-6.732 1.681-13.364 2.472-19.997 6.92-.099 13.642-.297 20.365-.395zm-11.073 36.231c2.472-.198 5.042-.297 7.514-.495-.495 5.148-.989 10.295-1.483 15.641-4.745.396-9.392.792-14.137 1.287-2.57.198-5.141.495-7.711.693.692-5.445 1.384-10.89 1.977-16.136 4.646-.396 9.293-.693 13.84-.99zm8.404-.495c7.711-.495 15.323-.99 22.836-1.485-.395 4.95-.89 9.998-1.186 15.047-7.711.693-15.422 1.287-23.133 1.98.395-5.247.889-10.493 1.483-15.542zm23.726-1.584c8.008-.495 15.916-.99 23.825-1.386-.296 4.851-.593 9.602-.791 14.453-8.007.594-16.114 1.287-24.22 1.98a384.76 384.76 0 011.186-15.047zm24.616-1.386c8.205-.495 16.411-.891 24.616-1.287-.198 4.653-.395 9.306-.593 14.057-8.205.495-16.51 1.089-24.814 1.683.198-4.851.494-9.701.791-14.453zm25.407-1.386c8.996-.396 17.992-.792 26.89-.99 0 4.554 0 9.108-.099 13.661-9.095.396-18.289.792-27.483 1.386.297-4.652.494-9.404.692-14.057zm27.78-.99c8.403-.297 16.806-.396 25.209-.495v13.562c-8.403.099-16.806.297-25.209.693-.099-4.652 0-9.206 0-13.76zm26-.594a971.594 971.594 0 0124.023 0h4.646v13.562h-6.327a840.382 840.382 0 00-22.342 0v-13.562zm29.559 0c9.589-.099 19.08 0 28.669.198v13.661c-9.589-.297-19.08-.396-28.669-.297v-13.562zm29.46.198c10.479.198 20.86.495 31.339.891.197 4.653.395 9.405.494 14.057-10.677-.594-21.255-.99-31.833-1.287v-13.661zm0-.891v-13.562c10.281.198 20.464.396 30.746.792.197 4.554.395 9.207.593 13.76-10.479-.495-20.959-.792-31.339-.99zm-.099-31.479v-16.136c9.787 0 19.574.099 29.362.198.197 5.345.395 10.691.692 16.136-9.985-.099-20.069-.099-30.054-.198zm0-16.928v-16.136c9.59 0 19.278 0 28.867.099.099 5.346.297 10.79.495 16.235-9.788-.099-19.575-.198-29.362-.198zm0-16.928v-16.928h28.571c0 5.643.099 11.285.296 16.928h-28.867zm0-37.617v-19.997h28.67c-.099 6.633-.099 13.364-.099 19.997h-28.571zm0-20.789v-21.184c9.688 0 19.476-.099 29.164-.099-.198 7.127-.396 14.156-.494 21.283-9.59-.099-19.179 0-28.67 0zm-.89 0h-28.57v-21.184h28.57v21.184zm-29.361 0h-28.57v-21.184h28.57v21.184zm-29.46 0h-25.111v-21.184c8.404 0 16.708 0 25.111.099v21.085zm-25.901-.099h-23.826a770.325 770.325 0 00-.593-21.283c8.107 0 16.213.099 24.419.099v21.184zm-24.617 0h-23.726c-.198-7.127-.395-14.255-.791-21.382 7.909 0 15.917.099 23.825.099.396 7.127.594 14.255.692 21.283zm-24.517 0c-7.315 0-14.631 0-22.046-.099-.197-7.127-.593-14.255-1.087-21.481 7.415.099 14.829.099 22.342.198.297 7.127.594 14.255.791 21.382zm-22.935-.099c-7.316 0-14.73 0-22.046-.099a814.06 814.06 0 00-1.186-21.58c7.414.099 14.829.099 22.243.198.396 7.226.791 14.354.989 21.481zm-22.837-.099c-6.525 0-13.049 0-19.574-.099-.297-7.226-.89-14.453-1.582-21.778 6.624.099 13.247.099 19.871.198.593 7.325.989 14.552 1.285 21.679zm-20.365 0c-6.228 0-12.456 0-18.685-.099a424.156 424.156 0 00-1.779-21.877c6.327.099 12.555.099 18.882.198.692 7.325 1.187 14.552 1.582 21.778zm0 .792c.297 6.732.395 13.463.297 20.195h-18.586c.099-6.732 0-13.463-.396-20.294 6.229.099 12.457.099 18.685.099zm.297 41.28c-.099 5.742-.396 11.384-.791 17.225-6.228 0-12.556.099-18.784.099.396-5.841.791-11.582.89-17.225 6.228-.099 12.456-.099 18.685-.099zm-.791 18.017c-.396 5.544-.89 11.186-1.384 16.928l-18.981.297c.692-5.742 1.186-11.483 1.68-17.126 6.129 0 12.358-.099 18.685-.099zm-1.582 17.72c-.593 5.444-1.186 10.988-1.878 16.631-6.426.198-12.852.297-19.278.495.791-5.643 1.483-11.286 2.175-16.829 6.327 0 12.654-.198 18.981-.297zm-1.977 17.521c-.791 6.534-1.681 13.167-2.472 19.997-6.525.297-13.148.693-19.772.99a1026.176 1026.176 0 002.966-20.492c6.426-.198 12.852-.297 19.278-.495zm-2.571 20.888c-.197 1.485-.395 3.069-.593 4.653-.494 3.464-.89 6.929-1.384 10.493-6.722.396-13.346.891-20.167 1.287l1.186-8.019c.396-2.474.692-4.949 1.088-7.424 6.722-.297 13.346-.693 19.87-.99zm-2.076 15.938c-.692 5.246-1.384 10.691-1.977 16.136-6.821.594-13.643 1.188-20.563 1.782.791-5.643 1.582-11.286 2.472-16.73 6.623-.297 13.346-.792 20.068-1.188zm-2.076 17.027a3741.928 3741.928 0 00-1.779 15.74c-6.92.791-13.939 1.583-21.057 2.375.692-5.543 1.483-10.988 2.175-16.334 6.92-.593 13.84-1.187 20.661-1.781zm.791-.099c2.669-.198 5.24-.495 7.909-.693 4.646-.396 9.392-.792 14.038-1.287-.494 4.949-.89 9.998-1.285 15.047-6.031.693-12.16 1.386-18.289 2.079-1.384.198-2.768.297-4.152.495.593-5.247 1.186-10.494 1.779-15.641zm22.837-1.98c7.81-.693 15.521-1.386 23.133-1.98-.395 4.752-.692 9.602-.989 14.453-7.711.792-15.521 1.683-23.429 2.574.395-5.148.79-10.098 1.285-15.047zm24.023-2.079c8.106-.693 16.213-1.386 24.22-1.98-.197 4.554-.494 9.206-.692 13.859-8.106.792-16.312 1.584-24.517 2.475.198-4.851.593-9.602.989-14.354zm25.011-2.079c8.305-.594 16.609-1.188 24.814-1.683-.198 4.455-.296 8.91-.494 13.364-8.304.693-16.609 1.386-25.012 2.178.198-4.653.396-9.206.692-13.859zm25.605-1.683c9.194-.594 18.388-.99 27.483-1.386 0 4.257 0 8.613-.099 12.968-9.293.495-18.585 1.089-27.878 1.782.197-4.553.395-9.008.494-13.364zm28.373-1.485c8.403-.297 16.806-.594 25.209-.693v12.77c-8.403.099-16.806.396-25.308.891.099-4.355.099-8.612.099-12.968zm26.099-.594a840.382 840.382 0 0122.342 0h6.327v12.671c-2.076 0-4.251 0-6.327.099a840.382 840.382 0 00-22.342 0v-12.77zm29.559-.099c9.589 0 19.08.099 28.669.297v12.77c-9.589-.297-19.179-.495-28.669-.396v-12.671zm29.46.396c10.578.297 21.255.792 31.932 1.287.099 4.356.296 8.811.395 13.166-10.775-.792-21.551-1.386-32.228-1.683 0-4.256 0-8.513-.099-12.77zm32.723 1.287c11.27.594 22.54 1.386 33.909 2.277.197 4.554.494 9.206.692 13.859-11.468-1.089-22.837-2.079-34.206-2.871-.099-4.454-.198-8.81-.395-13.265zm0-.792c-.198-4.751-.297-9.404-.495-14.057 11.172.495 22.343.99 33.514 1.584.296 4.851.593 9.8.89 14.651-11.369-.792-22.639-1.584-33.909-2.178zm-.495-14.948c-.197-4.652-.395-9.206-.593-13.76 10.974.396 22.046.792 33.217 1.287.297 4.653.593 9.405.89 14.057-11.27-.594-22.441-1.089-33.514-1.584zm-.692-14.651c-.098-1.683-.098-3.266-.197-4.949-.198-3.96-.297-7.92-.495-11.78 10.875.099 21.848.198 32.822.396.296 5.147.692 10.295.988 15.541 0 .693.099 1.386.099 2.079-11.171-.495-22.144-.891-33.217-1.287zm-.692-17.62c-.197-5.445-.494-10.791-.692-16.136l32.525.297c.297 5.345.593 10.79.989 16.235-11.072-.099-21.947-.198-32.822-.396zm-.692-16.928c-.197-5.445-.395-10.79-.494-16.235 10.776 0 21.453.099 32.228.099.198 5.445.396 10.889.692 16.334-10.874-.099-21.65-.198-32.426-.198zm-.593-17.126l-.296-16.928h32.129c.099 5.643.198 11.285.395 17.027-10.676 0-21.452 0-32.228-.099zm-.198-37.617c-.098-6.732 0-13.364.099-19.997 10.677 0 21.453 0 32.229-.099-.198 6.732-.198 13.364-.099 19.997-10.875.099-21.552.099-32.229.099zm0-20.888c.099-7.028.297-14.156.495-21.283 10.776 0 21.65-.099 32.426-.198-.396 7.127-.593 14.255-.791 21.382-10.677.099-21.354.099-32.13.099zm.594-22.075c.197-7.029.494-14.156.791-21.284 10.973-.099 21.848-.198 32.821-.396a826.048 826.048 0 00-1.186 21.482c-10.776.099-21.651.099-32.426.198zm-.89 0c-9.688 0-19.476.099-29.164.099v-21.185c9.985 0 19.97-.099 29.955-.198-.198 7.128-.495 14.255-.791 21.284zm-29.955.099h-28.57v-21.086c9.49 0 19.08 0 28.57-.099v21.185zm-29.46 0h-28.57v-21.185h28.669c-.099 7.128-.099 14.156-.099 21.185zm-29.46 0c-8.403 0-16.707 0-25.111-.099 0-7.029 0-14.156-.098-21.185 8.403.099 16.806.099 25.11.099.099 7.128.099 14.156.099 21.185zm-25.901-.099c-8.107 0-16.312-.099-24.419-.099-.296-7.029-.593-14.156-.988-21.383 8.502.099 16.905.198 25.308.198.099 7.227.099 14.255.099 21.284zm-25.309-.099c-7.908 0-15.916-.099-23.825-.099-.296-7.128-.791-14.255-1.186-21.581l24.122.297c.296 7.227.692 14.354.889 21.383zm-24.714-.099c-7.415 0-14.829-.099-22.343-.198-.494-7.227-.988-14.453-1.68-21.779 7.612.099 15.224.297 22.737.396.593 7.326.989 14.453 1.286 21.581zm-23.134-.198c-7.414-.099-14.829-.099-22.243-.198-.494-7.227-1.186-14.552-1.879-21.977 7.514.198 15.027.297 22.442.396.692 7.425 1.186 14.651 1.68 21.779zm-23.034-.099c-6.624-.099-13.247-.099-19.871-.198a950.775 950.775 0 00-2.373-22.274c6.822.198 13.643.297 20.366.495.692 7.326 1.285 14.651 1.878 21.977zm-20.761-.198c-6.327-.099-12.555-.099-18.882-.198-.791-7.425-1.779-14.849-2.768-22.571 6.426.198 12.852.297 19.278.495a956.117 956.117 0 012.372 22.274zm-19.673-.297c-6.03-.099-12.159-.099-18.19-.198-.89-7.524-2.076-15.047-3.262-22.868 6.228.198 12.456.396 18.684.495.989 7.722 1.977 15.245 2.768 22.571zm0 .891a425.29 425.29 0 011.78 21.877c-5.932 0-11.863 0-17.894-.099a432.44 432.44 0 00-2.076-21.976c6.129.099 12.16.099 18.19.198zm1.879 22.768c.395 6.831.494 13.562.395 20.294h-17.795c.099-6.732-.099-13.463-.494-20.294a539.086 539.086 0 0117.894 0zm.296 41.28a520.654 520.654 0 01-.89 17.324c-6.03 0-11.962.099-17.992.099.494-5.841.89-11.582 1.087-17.324 5.932 0 11.864-.099 17.795-.099zm-.988 18.116c-.495 5.643-.989 11.384-1.681 17.126-6.129.099-12.16.198-18.289.396.791-5.841 1.384-11.583 1.977-17.324 6.031-.099 11.962-.099 17.993-.198zm-1.78 18.017c-.593 5.543-1.384 11.087-2.175 16.828-6.228.198-12.456.297-18.684.495.889-5.741 1.779-11.384 2.471-16.927 6.228-.198 12.259-.297 18.388-.396zm-2.274 17.62c-.889 6.732-1.878 13.463-2.965 20.492-6.426.297-12.753.594-19.179.891a1036.909 1036.909 0 003.559-20.888c6.228-.099 12.357-.297 18.585-.495zm-3.064 21.383c-.396 2.376-.692 4.752-1.088 7.226-.395 2.673-.791 5.445-1.186 8.217-6.525.396-13.148.792-19.673 1.188.296-1.683.593-3.465.89-5.148.593-3.564 1.285-7.127 1.878-10.592 6.426-.297 12.753-.594 19.179-.891zm-2.472 16.334c-.791 5.444-1.68 11.087-2.471 16.73-6.723.594-13.445 1.187-20.267 1.682.989-5.84 1.978-11.582 2.966-17.224 6.723-.396 13.247-.792 19.772-1.188zm-2.471 17.521c-.791 5.346-1.483 10.791-2.175 16.334-6.92.792-13.841 1.584-20.86 2.277.89-5.741 1.879-11.384 2.768-16.928 6.723-.495 13.445-1.089 20.267-1.683zm-2.373 17.225c-.692 5.445-1.384 10.989-1.977 16.631-7.118.99-14.236 2.079-21.453 3.069.89-5.94 1.681-11.78 2.571-17.423 7.019-.693 13.939-1.485 20.859-2.277zm.89-.099l21.057-2.376c-.593 5.247-1.088 10.494-1.582 15.938-7.118 1.089-14.236 2.079-21.452 3.168.593-5.741 1.285-11.285 1.977-16.73zm21.848-2.475c1.483-.197 2.867-.296 4.35-.494 6.129-.693 12.159-1.386 18.091-2.079-.395 4.949-.692 9.998-1.087 15.047-6.426.891-12.852 1.88-19.278 2.87-1.186.198-2.472.396-3.658.495.494-5.345 1.088-10.691 1.582-15.839zm23.331-2.771c7.81-.891 15.62-1.782 23.43-2.574-.297 4.752-.594 9.503-.791 14.255-7.81 1.089-15.719 2.178-23.727 3.366.396-5.049.692-10.098 1.088-15.047zm24.319-2.673c8.206-.891 16.411-1.782 24.616-2.475-.197 4.455-.395 9.008-.494 13.562-8.205.99-16.51 2.079-24.913 3.267.198-4.851.495-9.602.791-14.354zm25.407-2.574c8.403-.792 16.708-1.584 25.012-2.178-.099 4.257-.198 8.514-.297 12.869-8.304.891-16.707 1.782-25.209 2.871.099-4.653.297-9.107.494-13.562zm25.803-2.277c9.391-.693 18.684-1.287 27.977-1.782 0 4.059 0 8.217-.099 12.275a675.422 675.422 0 00-28.175 2.376c.099-4.355.198-8.612.297-12.869zm28.768-1.881c8.502-.396 16.905-.693 25.308-.891v11.979c-8.403.198-16.905.593-25.308 1.187v-12.275zm26.198-.792a840.373 840.373 0 0122.342 0c2.076 0 4.251 0 6.327-.099v11.88c-1.384 0-2.768 0-4.251.099-8.205-.198-16.312-.099-24.517.099.099-4.059.099-8.019.099-11.979zm29.559-.099c9.589-.099 19.08.099 28.669.396v11.88c-9.589-.396-19.179-.594-28.768-.495.099-3.861.099-7.821.099-11.781zm29.559.396c10.677.396 21.453.99 32.228 1.683.099 4.059.198 8.118.198 12.275-10.875-.891-21.65-1.683-32.426-2.078v-11.88zm33.118 1.782c11.369.792 22.738 1.782 34.206 2.871.197 4.356.296 8.612.494 12.968a1067.987 1067.987 0 00-34.403-3.564c-.198-4.058-.198-8.117-.297-12.275zm34.996 2.97c11.666 1.089 23.331 2.376 35.195 3.663.296 4.652.593 9.305.889 14.057a2526.952 2526.952 0 00-35.589-4.752c-.198-4.257-.297-8.612-.495-12.968zm0-.792c-.197-4.653-.395-9.305-.692-13.859 11.468.891 23.035 1.881 34.7 2.871.396 4.851.791 9.8 1.088 14.75-11.765-1.386-23.529-2.673-35.096-3.762zm-.79-14.75c-.297-4.95-.594-9.8-.89-14.75 11.27.594 22.639 1.287 34.205 2.079.495 5.148.89 10.295 1.384 15.542-11.665-.99-23.232-1.98-34.699-2.871zm-1.78-30.49c0-.693-.099-1.485-.099-2.178-.296-5.246-.692-10.394-.988-15.541 10.973.198 22.045.297 33.118.495.593 6.236 1.087 12.473 1.68 18.808-11.369-.594-22.639-1.089-33.711-1.584zm-1.186-18.61c-.297-5.445-.692-10.89-.989-16.235 10.875.099 21.749.198 32.624.396.395 5.444.89 10.889 1.384 16.433-11.072-.198-22.046-.396-33.019-.594zm-.989-17.027c-.296-5.445-.494-10.889-.692-16.334 10.776 0 21.552.099 32.327.198.297 5.544.593 10.988 1.088 16.631-10.974-.297-21.848-.396-32.723-.495zm-.791-17.225c-.198-5.643-.296-11.384-.395-17.027 10.677 0 21.452 0 32.129.099.099 5.643.297 11.384.593 17.027-10.775 0-21.551-.099-32.327-.099zm-.395-37.815c-.099-6.732 0-13.364.099-20.096 10.677 0 21.452 0 32.228-.099-.198 6.732-.297 13.463-.198 20.096-10.677.099-21.452.099-32.129.099zm.198-20.888c.197-7.127.395-14.255.79-21.382 10.875-.099 21.651-.099 32.525-.198-.494 7.226-.889 14.354-1.087 21.481-10.776 0-21.552 0-32.228.099zm.79-22.273c.396-7.128.791-14.255 1.187-21.482 10.973-.198 22.045-.297 33.118-.495a852.84 852.84 0 00-1.78 21.878c-10.874 0-21.65.099-32.525.099zm1.286-22.373c.296-4.85.593-9.701.889-14.651.198-3.068.396-6.236.593-9.305 11.172-.594 22.541-1.188 33.909-1.881-.197 2.079-.395 4.257-.593 6.336-.593 6.434-1.186 12.77-1.779 19.006-10.974.198-22.046.396-33.019.495zm.098-14.75c-.296 4.95-.593 9.9-.988 14.75-10.974.198-21.947.297-32.92.396.197-4.157.395-8.414.593-12.671.197-3.366.296-6.83.494-10.196 11.072-.396 22.243-.891 33.415-1.485l-.594 9.206zm-34.106 2.475c-.198 4.257-.396 8.514-.593 12.671-9.985.099-19.97.198-30.054.198V199.57c10.282-.198 20.662-.495 30.943-.891 0 3.465-.197 6.83-.296 10.196zm-31.438 12.869c-9.49 0-19.08.099-28.57.099v-22.075h4.745c8.008 0 15.917-.099 23.825-.198v22.174zm-29.46.099h-28.57v-22.075c7.414.099 14.829.099 22.342 0h6.327c-.099 7.424-.099 14.75-.099 22.075zm-29.46 0c-8.403 0-16.707-.099-25.111-.099 0-7.424 0-14.849-.098-22.372 8.403.198 16.806.396 25.209.396v22.075zm-26-.198c-8.403-.099-16.905-.099-25.407-.198-.198-4.256-.396-8.612-.692-12.968-.198-3.366-.297-6.731-.495-10.097 8.799.396 17.696.693 26.495.891.099 7.523.099 14.948.099 22.372zm-26.791-13.166c.197 4.356.494 8.613.692 12.968l-24.122-.297c-.297-5.048-.593-10.196-.989-15.344l-.593-8.612c8.206.396 16.312.792 24.419 1.188l.593 10.097zm-25.308-2.574c.296 5.148.692 10.197.988 15.245-7.612-.099-15.224-.198-22.738-.396-.494-6.137-1.087-12.374-1.68-18.61l-.593-6.237c7.908.396 15.718.891 23.429 1.287.198 2.871.396 5.841.594 8.711zm-24.32-3.662c.593 6.236 1.088 12.374 1.582 18.511-7.514-.099-14.928-.297-22.441-.396-.692-6.929-1.384-13.859-2.076-20.887-.198-1.584-.297-3.267-.495-4.95 7.711.495 15.324.891 22.837 1.287.198 2.178.395 4.356.593 6.435zm-23.726-2.673c.692 7.028 1.384 13.958 2.076 20.788-6.822-.099-13.643-.297-20.464-.495-.989-7.82-1.977-15.838-3.065-23.857-.099-.891-.198-1.782-.395-2.673 4.943.297 9.787.594 14.73.891 2.175.099 4.35.297 6.525.396.197 1.584.395 3.267.593 4.95zm-22.244-3.465c1.088 8.118 2.076 16.037 3.065 23.758-6.426-.198-12.852-.297-19.278-.495-1.186-8.81-2.57-17.917-3.954-27.322 6.623.396 13.247.792 19.871 1.089 0 .99.197 1.98.296 2.97zm-36.677 22.67c-6.129-.198-12.357-.396-18.585-.594-1.681-9.108-3.461-18.512-5.438-28.213l19.278.89c1.681 9.702 3.361 18.908 4.745 27.917zm.198.89a529.129 529.129 0 013.262 22.868c-6.03-.099-12.061-.198-18.091-.198-1.088-7.623-2.274-15.344-3.757-23.165 6.228.099 12.358.297 18.586.495zm3.361 23.759c.89 7.424 1.582 14.75 2.076 22.075-5.931 0-11.863-.099-17.893-.099-.495-7.325-1.384-14.651-2.373-22.174 6.129 0 12.16.099 18.19.198zm2.175 22.867c.396 6.831.593 13.562.494 20.294h-17.794a235.316 235.316 0 00-.594-20.393c5.932 0 11.963.099 17.894.099zm.297 41.478c-.198 5.742-.593 11.483-1.088 17.324-5.931.099-11.962.099-17.992.198.593-5.841.988-11.681 1.285-17.423 5.931-.099 11.863-.099 17.795-.099zm-1.187 18.215c-.494 5.741-1.186 11.483-1.977 17.324-6.03.099-12.16.297-18.19.396.89-5.94 1.582-11.781 2.175-17.621 6.03 0 12.061-.099 17.992-.099zm-2.076 18.215c-.791 5.543-1.581 11.186-2.471 16.927-6.13.198-12.358.396-18.586.594.989-5.84 1.977-11.483 2.768-17.125 6.228-.198 12.259-.297 18.289-.396zm-2.57 17.818a1036.909 1036.909 0 01-3.559 20.888c-6.327.297-12.654.495-19.08.792 1.384-7.227 2.768-14.255 3.954-21.086 6.327-.297 12.457-.396 18.685-.594zm-3.658 21.779l-1.779 10.394-.89 5.346c-6.426.396-12.951.693-19.475 1.089.098-.693.296-1.287.395-1.98.989-4.752 1.878-9.405 2.768-14.057 6.228-.297 12.654-.594 18.981-.792zm-2.966 16.532a2054.525 2054.525 0 00-2.965 17.323c-6.624.495-13.347 1.089-19.97 1.584a2767.429 2767.429 0 013.559-17.818c6.426-.396 12.95-.693 19.376-1.089zm-3.163 18.115c-.89 5.544-1.879 11.187-2.768 16.928-6.822.693-13.643 1.485-20.563 2.079 1.087-5.94 2.175-11.78 3.361-17.522a652.723 652.723 0 0019.97-1.485zm-2.867 17.819c-.89 5.643-1.78 11.483-2.57 17.423-7.02.99-14.039 1.881-21.156 2.871 1.087-6.237 2.076-12.275 3.163-18.116 6.821-.693 13.742-1.386 20.563-2.178zm-2.768 18.314c-.791 5.642-1.582 11.384-2.274 17.225-7.217 1.188-14.434 2.474-21.848 3.662.89-6.137 1.878-12.176 2.867-18.115 7.217-.792 14.236-1.782 21.255-2.772zm.89-.099c7.216-.99 14.433-1.98 21.551-3.069-.593 5.346-1.186 10.79-1.681 16.433a4951.919 4951.919 0 01-22.144 3.861c.692-5.841 1.483-11.583 2.274-17.225zm22.342-3.168c7.217-1.089 14.433-2.079 21.551-3.168-.494 5.049-.889 10.296-1.285 15.542-7.315 1.287-14.631 2.673-21.947 3.96.593-5.544 1.088-10.988 1.681-16.334zm22.441-3.267l3.856-.594c6.425-.99 12.753-1.881 19.08-2.771-.297 4.85-.594 9.701-.791 14.65-7.711 1.386-15.521 2.772-23.43 4.257.395-5.345.791-10.493 1.285-15.542zm23.825-3.563c7.909-1.188 15.818-2.277 23.727-3.366-.198 4.553-.396 9.206-.495 13.859a5674.141 5674.141 0 01-24.023 4.157c.198-4.949.495-9.8.791-14.65zm24.518-3.465a1147.096 1147.096 0 0124.912-3.267l-.296 13.067c-8.305 1.287-16.708 2.574-25.21 3.96.198-4.554.396-9.207.594-13.76zm25.802-3.366c8.403-.99 16.806-1.98 25.209-2.871-.099 4.158-.099 8.316-.099 12.473-8.403.99-16.806 2.178-25.308 3.465 0-4.356.099-8.81.198-13.067zm26-2.97a675.422 675.422 0 0128.175-2.376c0 3.96 0 8.019-.099 12.078-9.391.692-18.783 1.682-28.274 2.771.099-4.157.099-8.315.198-12.473zm29.065-2.376a547.41 547.41 0 0125.308-1.188v11.88c-8.403.198-16.905.693-25.407 1.386 0-4.059 0-8.118.099-12.078zm26.198-1.188c8.205-.197 16.41-.198 24.517-.099 1.384 0 2.768 0 4.251-.099v11.781c-2.076 0-4.251 0-6.327.099-7.415-.198-14.928-.099-22.441.099v-11.781zm29.559-.198c9.589-.099 19.179.099 28.768.495v12.078c-9.589-.495-19.179-.792-28.768-.693v-11.88zm29.559.495a905.09 905.09 0 0132.426 2.079c.099 4.257.099 8.415.099 12.671a609.131 609.131 0 00-32.525-2.672v-12.078zm68.609 5.94c11.764 1.386 23.627 3.069 35.589 4.752.297 4.85.495 9.8.593 14.849-12.06-2.079-24.121-4.059-35.985-5.841 0-4.752-.098-9.305-.197-13.76zm36.479 4.752a2948.097 2948.097 0 0136.38 5.345c1.483.198 2.966.396 4.449.693.494 5.346.989 10.791 1.384 16.334l-4.745-.891c-12.358-2.277-24.616-4.455-36.776-6.632-.297-4.95-.494-9.9-.692-14.849zm36.479 4.553c-12.357-1.781-24.517-3.662-36.578-5.345-.296-4.752-.494-9.405-.89-14.057 10.282 1.188 20.563 2.376 30.943 3.564 3.065.395 6.031.692 9.096 1.088.593 5.049 1.087 10.197 1.581 15.443-1.384-.297-2.768-.495-4.152-.693zm-6.327-16.729a14619.764 14619.764 0 01-31.141-3.564c-.296-4.95-.692-9.899-1.087-14.75 8.798.792 17.696 1.584 26.692 2.376 4.152.396 8.403.792 12.555 1.089.593 5.147 1.285 10.493 1.879 15.838-2.966-.296-5.932-.593-8.898-.989zm-5.536-16.73c-8.996-.792-17.992-1.584-26.89-2.376-.395-5.247-.89-10.394-1.384-15.542l23.43 1.485c4.943.297 9.985.693 15.027.99.692 5.444 1.384 10.889 2.175 16.532-4.054-.396-8.206-.792-12.358-1.089zm-11.27-33.262c-6.228-.297-12.357-.594-18.388-.99-.593-6.335-1.186-12.572-1.68-18.808 12.258.197 24.517.494 36.874.791.791 6.534 1.681 13.167 2.571 19.997-6.525-.297-12.951-.594-19.377-.99zm-20.167-20.59c-.495-5.544-.89-10.989-1.384-16.433 12.061.198 24.121.396 36.281.594.593 5.444 1.186 10.988 1.878 16.631-12.357-.297-24.616-.594-36.775-.792zm-1.483-17.225c-.396-5.544-.791-11.087-1.088-16.631 11.962.099 23.825.099 35.788.198.395 5.643.889 11.186 1.482 16.928-12.06-.198-24.121-.396-36.182-.495zm-1.088-17.522a497.207 497.207 0 01-.593-17.126c11.863 0 23.726.099 35.491.099.099 5.742.395 11.483.791 17.225-11.765 0-23.727-.099-35.689-.198zm-.593-37.914c-.099-6.732 0-13.364.198-20.096 11.863 0 23.726-.099 35.589-.099a344.352 344.352 0 00-.296 20.195c-11.765-.099-23.628 0-35.491 0zm.297-20.987c.197-7.127.593-14.255 1.087-21.481l36.084-.297c-.692 7.325-1.285 14.552-1.582 21.778-11.863-.099-23.726 0-35.589 0zm1.186-22.372a881.037 881.037 0 011.78-21.878c12.258-.198 24.517-.495 36.874-.792a640.3 640.3 0 00-2.471 22.274c-12.16.198-24.221.297-36.183.396zm1.78-22.67c.593-6.236 1.186-12.572 1.779-18.907.198-2.178.395-4.257.593-6.435 6.327-.396 12.555-.693 18.981-1.089 6.327-.396 12.753-.792 19.08-1.089a97.758 97.758 0 01-.296 1.98 1588.776 1588.776 0 00-3.263 24.847c-12.357.198-24.616.396-36.874.693zm21.254-27.421c-6.327.396-12.555.792-18.783 1.089.791-8.414 1.582-16.829 2.274-25.441 9.095-.792 18.19-1.683 27.384-2.574 3.954-.396 7.909-.693 11.962-1.089-1.087 9.207-2.274 18.215-3.46 26.827-6.525.495-12.951.891-19.377 1.188zm-19.673 1.188c-11.369.693-22.738 1.287-33.909 1.881.495-8.018.989-16.136 1.483-24.352a2240.16 2240.16 0 0034.7-2.97c-.692 8.612-1.483 17.027-2.274 25.441zm-34.798 1.881a1928.618 1928.618 0 01-33.415 1.485c.297-7.82.692-15.641.89-23.461 11.27-.693 22.54-1.386 34.007-2.277-.494 8.117-.988 16.235-1.482 24.253zm-34.305 1.584c-10.38.396-20.662.693-31.042.891 0-7.623 0-15.344.099-22.966 10.578-.297 21.156-.792 31.833-1.386a928.669 928.669 0 01-.89 23.461zm-31.833.891c-9.49.198-19.08.297-28.57.198v-22.867c9.589 0 19.08-.099 28.669-.297 0 7.622-.099 15.343-.099 22.966zm-29.46.198h-6.327c-7.414.099-14.928.099-22.342 0v-22.867c3.756 0 7.414.099 11.171.099 3.757 0 7.414 0 11.171-.099h6.327v22.867zm-29.46 0c-8.403-.099-16.806-.198-25.209-.396 0-7.722-.099-15.344-.099-23.164 8.403.297 16.806.594 25.308.693v22.867zm-26-.495c-8.799-.198-17.696-.594-26.495-.891-.395-7.82-.791-15.74-1.087-23.659 9.194.594 18.388 1.089 27.483 1.485 0 7.622 0 15.343.099 23.065zm-27.384-.99c-8.107-.297-16.312-.693-24.419-1.188-.494-8.018-.988-16.136-1.483-24.352 8.305.693 16.609 1.287 24.814 1.782.297 8.117.692 15.938 1.088 23.758zm-25.309-1.188c-7.809-.396-15.619-.792-23.429-1.287-.692-8.315-1.483-16.631-2.076-25.045 8.106.693 16.114 1.386 24.121 1.98.396 8.216.89 16.334 1.384 24.352zm-24.319-1.287c-7.612-.396-15.225-.891-22.936-1.287-.889-8.414-1.68-17.027-2.471-25.837 7.81.693 15.62 1.386 23.331 2.079a985.228 985.228 0 002.076 25.045zm-23.726-1.386c-2.175-.099-4.251-.297-6.426-.396l-14.829-.891c-1.088-8.612-2.274-17.521-3.362-26.728 2.472.198 4.845.495 7.316.693 4.943.495 9.886.891 14.73 1.386.791 8.909 1.681 17.522 2.571 25.936zm-22.145-1.287l-19.871-1.188c-1.285-8.909-2.669-18.016-4.053-27.421 6.92.594 13.741 1.287 20.563 1.881 1.087 9.207 2.273 18.116 3.361 26.728zm-20.761-1.188c-6.426-.395-12.95-.692-19.475-1.088-.198-.891-.297-1.881-.494-2.772a2612.35 2612.35 0 01-4.449-25.441c6.821.593 13.643 1.187 20.365 1.781 1.384 9.504 2.768 18.611 4.053 27.52zm-20.76-3.662c.198.891.296 1.683.494 2.574l-19.278-.891c-.395-1.98-.79-4.059-1.186-6.039-1.483-7.424-2.966-15.047-4.547-22.966 6.722.495 13.444 1.089 20.068 1.584a2250.853 2250.853 0 004.449 25.738zm-20.86-4.257c.396 1.98.791 3.861 1.187 5.841-5.932-.297-11.864-.495-17.795-.693-.791-3.366-1.582-6.732-2.373-10.197a1214.244 1214.244 0 01-4.448-19.501c6.327.396 12.654.891 18.882 1.386 1.582 8.018 3.064 15.641 4.547 23.164zm1.384 6.732c1.978 9.701 3.757 19.105 5.438 28.213-5.635-.198-11.27-.396-17.004-.495-1.879-9.108-3.955-18.512-6.228-28.411 5.931.198 11.863.396 17.794.693zm5.537 29.103c1.384 7.92 2.669 15.641 3.756 23.264-5.437-.099-10.973-.198-16.411-.198-1.186-7.623-2.669-15.443-4.25-23.56 5.635.198 11.27.297 16.905.494zm3.855 24.056c.989 7.523 1.878 14.948 2.373 22.174-5.339 0-10.776-.099-16.114-.099a305.702 305.702 0 00-2.67-22.372c5.536.198 10.974.198 16.411.297zm2.472 23.065c.494 6.831.692 13.661.593 20.393h-16.114a237.597 237.597 0 00-.594-20.492c5.339 0 10.677.099 16.115.099zm.395 41.676c-.198 5.742-.692 11.582-1.285 17.423-5.437.099-10.875.099-16.411.198.692-5.94 1.186-11.78 1.483-17.522 5.437-.099 10.776-.099 16.213-.099zm-1.384 18.314c-.593 5.84-1.384 11.681-2.274 17.621-5.635.099-11.171.297-16.806.396 1.087-6.039 1.878-11.979 2.669-17.819 5.536-.099 10.974-.198 16.411-.198zm-2.373 18.413c-.889 5.642-1.779 11.285-2.867 17.125-5.733.198-11.467.396-17.3.594a741.722 741.722 0 003.262-17.323c5.734-.198 11.369-.297 16.905-.396zm-2.965 18.016c-1.187 6.93-2.571 13.958-3.955 21.086-5.931.198-11.962.396-17.893.594 1.68-7.326 3.163-14.354 4.646-21.185 5.734-.198 11.468-.396 17.202-.495zm-4.153 21.977c-.889 4.553-1.779 9.107-2.768 13.859-.099.693-.296 1.485-.395 2.178-6.129.297-12.259.594-18.487.891 1.285-5.544 2.57-10.989 3.757-16.334 5.931-.198 11.962-.396 17.893-.594zm-3.361 16.829c-1.186 5.84-2.372 11.78-3.559 17.818-6.327.495-12.753.891-19.179 1.287 1.385-6.335 2.867-12.374 4.153-18.313 6.327-.198 12.456-.495 18.585-.792zm-3.658 18.709c-1.087 5.742-2.175 11.582-3.361 17.522-6.525.693-13.148 1.287-19.87 1.881 1.383-6.237 2.668-12.275 3.954-18.116 6.524-.396 12.95-.891 19.277-1.287zm-3.46 18.413c-1.087 5.94-2.175 11.978-3.163 18.116-6.822.891-13.643 1.683-20.563 2.474 1.285-6.434 2.57-12.77 3.954-18.808 6.525-.594 13.149-1.188 19.772-1.782zm-3.361 19.007c-.989 5.84-1.977 11.879-2.867 18.115-7.019 1.089-14.137 2.277-21.354 3.267 1.187-6.434 2.373-12.77 3.658-18.908 6.822-.792 13.742-1.583 20.563-2.474zm-3.065 19.006c-.889 5.841-1.68 11.879-2.57 18.116-7.316 1.386-14.631 2.772-22.145 4.158 1.088-6.534 2.175-12.77 3.263-18.908 7.315-1.188 14.433-2.277 21.452-3.366zm.89-.198c7.316-1.188 14.631-2.376 21.848-3.662-.692 5.642-1.285 11.384-1.878 17.224-7.415 1.485-14.928 3.069-22.441 4.455.791-6.138 1.581-12.077 2.471-18.017zm22.738-3.761c7.414-1.287 14.829-2.574 22.145-3.861-.495 5.345-.989 10.79-1.385 16.334a4440.701 4440.701 0 01-22.737 4.751c.692-5.939 1.285-11.582 1.977-17.224zm22.935-4.059c7.415-1.287 14.731-2.673 21.947-3.96a387.174 387.174 0 00-.889 15.344c-7.415 1.584-14.928 3.267-22.442 4.851.495-5.445.89-10.89 1.384-16.235zm22.936-4.158c7.909-1.485 15.719-2.871 23.43-4.257-.198 4.752-.396 9.504-.495 14.453-7.81 1.683-15.817 3.366-23.924 5.148.297-5.148.593-10.295.989-15.344zm24.221-4.356c8.007-1.484 16.015-2.87 24.022-4.157-.098 4.454-.197 9.008-.197 13.562a1347.164 1347.164 0 00-24.32 5.048c.198-4.949.297-9.701.495-14.453zm24.912-4.355c8.403-1.386 16.806-2.772 25.209-4.059v12.671c-8.304 1.485-16.806 3.168-25.406 4.851 0-4.455.098-9.009.197-13.463zm26-4.059c8.502-1.287 16.905-2.376 25.308-3.465 0 3.96 0 7.92.099 11.879a589.512 589.512 0 00-25.407 4.158v-12.572zm26.198-3.564c9.491-1.089 18.882-2.079 28.175-2.87 0 3.761-.099 7.523-.099 11.384-9.292.891-18.585 1.98-28.076 3.365v-11.879zm29.065-2.87c8.502-.693 17.004-1.089 25.407-1.386v11.087c-8.502.297-16.905.891-25.506 1.683 0-3.861.099-7.623.099-11.384zm26.198-1.386c7.513-.198 15.027-.198 22.441-.099 2.076-.099 4.251-.099 6.327-.099v10.988c-1.977 0-3.954.099-5.931.099-7.613-.198-15.225-.198-22.837.099v-10.988zm29.658-.198c9.589-.099 19.179.198 28.768.693v11.087c-9.589-.594-19.179-.891-28.768-.792v-10.988zm29.658.792a615.572 615.572 0 0132.525 2.672c0 3.861-.099 7.722-.099 11.583-10.875-1.386-21.65-2.475-32.327-3.168-.099-3.663-.099-7.425-.099-11.087zm33.316 2.771c11.467 1.287 23.034 2.772 34.601 4.554v12.473c-11.765-2.079-23.331-3.96-34.7-5.444 0-3.861.099-7.722.099-11.583zm35.49 4.653c11.863 1.782 23.924 3.762 35.985 5.841.198 4.553.297 9.107.297 13.76a1554.462 1554.462 0 00-36.282-7.128v-12.473zm36.776 6.039c12.061 2.078 24.32 4.355 36.578 6.533 1.681.297 3.263.594 4.943.891.396 5.049.692 10.097.989 15.344-1.186-.297-2.274-.495-3.46-.792a7461.864 7461.864 0 00-38.753-8.315c0-4.554-.099-9.108-.297-13.661zm42.411 7.622a7400.724 7400.724 0 0043.399 7.721c.692 5.544 1.286 11.286 1.879 17.126-15.027-3.069-29.757-6.236-44.289-9.404-.297-5.247-.594-10.394-.989-15.443zm0-.891c-.395-5.544-.89-10.988-1.384-16.334 13.939 2.079 27.977 4.158 42.312 6.138.791 5.84 1.582 11.78 2.373 17.918-14.632-2.475-29.065-5.148-43.301-7.722zm-1.483-17.225c-.494-5.246-.989-10.394-1.582-15.443 13.643 1.584 27.385 3.168 41.324 4.653.889 5.544 1.68 11.186 2.57 16.928-14.335-1.98-28.373-4.059-42.312-6.138zm-1.681-16.334c-.593-5.345-1.186-10.691-1.878-15.838 13.346 1.188 26.791 2.375 40.335 3.464.89 5.544 1.878 11.187 2.768 17.027-13.84-1.485-27.582-3.069-41.225-4.653zm-1.977-16.63c-.692-5.643-1.384-11.088-2.175-16.532 13.05.891 26.198 1.683 39.445 2.475.989 5.741 1.978 11.582 3.065 17.521-13.544-1.089-26.989-2.276-40.335-3.464zm-2.175-17.423c-.494-3.564-.889-7.029-1.384-10.394a542.817 542.817 0 00-.593-4.653c12.753.693 25.704 1.287 38.654 1.881.594 3.564 1.286 7.226 1.879 10.988.296 1.584.593 3.168.791 4.752-13.248-.891-26.396-1.683-39.347-2.574zm-2.175-15.938c-.889-6.83-1.779-13.463-2.57-19.997 12.555.297 25.11.594 37.765.99 1.087 6.831 2.273 13.76 3.46 20.888-12.951-.594-25.902-1.287-38.655-1.881zm-2.669-20.887c-.692-5.643-1.384-11.187-1.878-16.631 12.357.198 24.715.495 37.171.693.692 5.543 1.582 11.186 2.472 16.927-12.654-.396-25.308-.693-37.765-.989zm-1.977-17.522a537.802 537.802 0 01-1.483-16.928l36.677.297c.494 5.741 1.186 11.483 1.977 17.423-12.456-.297-24.912-.495-37.171-.792zm-1.582-17.72c-.395-5.742-.692-11.483-.791-17.225 12.16 0 24.32.099 36.381.099.198 5.742.593 11.483 1.087 17.324-12.258-.099-24.517-.198-36.677-.198zm-.889-38.31c-.099-6.732 0-13.463.296-20.195 12.16 0 24.32-.099 36.479-.099-.395 6.831-.593 13.562-.494 20.294h-36.281zm.395-20.987c.297-7.226.89-14.453 1.582-21.778 12.357-.099 24.616-.297 36.973-.396a434.743 434.743 0 00-2.076 21.976c-12.16.099-24.319.099-36.479.198zm1.681-22.669c.692-7.326 1.581-14.75 2.471-22.274 12.555-.297 25.11-.594 37.765-.99-1.187 7.821-2.373 15.344-3.263 22.868-12.357.198-24.715.297-36.973.396zm2.57-23.066c.989-8.018 2.076-16.234 3.262-24.748.099-.693.198-1.485.297-2.178 12.852-.792 25.901-1.485 39.05-2.178a2802.62 2802.62 0 00-4.746 28.016c-12.753.395-25.308.791-37.863 1.088zm7.217-55.535c1.285-10.295 2.471-20.887 3.46-31.875 13.939-2.079 28.076-4.158 42.411-6.138-1.681 11.978-3.46 23.461-5.339 34.351-13.741 1.188-27.186 2.474-40.532 3.662zm-.89.099c-4.053.396-8.107.792-12.16 1.089-9.194.891-18.289 1.683-27.285 2.475.791-9.701 1.483-19.502 1.977-29.5 11.666-1.683 23.43-3.366 35.392-5.147 1.779-.297 3.658-.495 5.437-.792-.89 11.087-2.076 21.679-3.361 31.875zm-40.236 3.663a2240.16 2240.16 0 01-34.7 2.97c.495-9.107.89-18.314 1.088-27.718 11.764-1.386 23.627-3.069 35.589-4.752-.494 10.097-1.186 19.898-1.977 29.5zm-35.59 3.069c-11.368.891-22.737 1.683-34.007 2.277.296-8.712.494-17.522.593-26.332 11.369-.99 22.935-2.277 34.502-3.663-.198 9.404-.593 18.611-1.088 27.718zm-34.798 2.376c-10.677.594-21.255 1.089-31.932 1.386 0-8.514 0-17.027.099-25.541 10.776-.495 21.551-1.187 32.426-2.177-.099 8.81-.297 17.62-.593 26.332zm-32.723 1.386a692.03 692.03 0 01-28.669.297v-25.343c9.589.099 19.08-.099 28.768-.495-.099 8.514-.099 17.027-.099 25.541zm-29.559.396h-6.327c-7.414.099-14.928.099-22.342 0v-25.442c4.251.099 8.601.198 12.852.198 3.46 0 6.92 0 10.38-.099 1.878 0 3.658.099 5.536.099-.099 8.316-.099 16.73-.099 25.244zm-29.46-.099c-8.403-.099-16.806-.396-25.308-.693 0-8.613-.099-17.225-.099-25.937 8.502.495 16.905.891 25.407 1.089-.099 8.514-.099 17.027 0 25.541zm-26.198-.693c-9.194-.396-18.289-.891-27.582-1.485-.395-8.811-.593-17.819-.791-26.827 9.392.891 18.784 1.683 28.175 2.276.198 8.712.198 17.423.198 26.036zm-28.274-29.104c-.198-9.603-.198-19.403.099-29.203a459.827 459.827 0 0027.977 3.564c.099 9.404.099 18.709.198 27.916-9.491-.594-18.882-1.386-28.274-2.277zm-.791.693c.198 9.008.396 18.016.791 26.827a1083.957 1083.957 0 01-24.814-1.782c-.494-9.206-.889-18.413-1.186-27.916 8.403 1.188 16.806 2.079 25.209 2.871zm-24.912 25.045c-8.008-.594-16.115-1.287-24.122-1.98-.692-9.503-1.384-19.205-1.879-29.104a1072.693 1072.693 0 0024.913 3.267c.198 9.404.593 18.611 1.088 27.817zm-25.012-2.079c-7.711-.693-15.521-1.386-23.331-2.079-.89-9.8-1.681-19.996-2.373-30.49 8.008 1.188 15.917 2.277 23.826 3.366.494 9.899 1.087 19.7 1.878 29.203zm-24.221-2.178c-4.844-.495-9.688-.891-14.631-1.386-2.471-.198-4.943-.495-7.513-.693-1.187-10.196-2.373-20.788-3.263-31.875.791.099 1.582.198 2.373.396 6.92.989 13.84 2.078 20.662 3.068.692 10.494 1.483 20.69 2.372 30.49zm-22.935-2.178c-6.821-.594-13.643-1.287-20.563-1.881-1.483-10.592-2.966-21.58-4.251-33.162 7.217 1.089 14.335 2.079 21.453 3.168.988 11.087 2.175 21.679 3.361 31.875zm-21.453-1.881c-6.722-.593-13.544-1.187-20.365-1.781a1166.667 1166.667 0 01-5.338-34.45c7.216.99 14.433 1.98 21.551 3.069a1262.389 1262.389 0 004.152 33.162zm-21.156-1.88c-6.623-.594-13.346-1.089-20.068-1.584a2247.927 2247.927 0 01-6.525-35.737c7.118.891 14.236 1.881 21.255 2.871 1.582 11.978 3.46 23.461 5.338 34.45zm-21.057-1.683c-6.228-.495-12.555-.891-18.882-1.386-2.57-11.483-5.24-23.759-7.909-36.925 6.821.792 13.643 1.584 20.266 2.475a2077.036 2077.036 0 006.525 35.836zm-19.772-1.485c-6.03-.396-11.962-.792-18.091-1.089-3.065-11.879-6.13-24.451-9.293-37.914 6.525.693 13.05 1.385 19.475 2.177a2000.945 2000.945 0 007.91 36.826zm.198.891c1.582 6.83 3.064 13.364 4.547 19.699.791 3.366 1.582 6.633 2.274 9.999-5.635-.198-11.369-.396-17.004-.594-1.087-4.356-2.273-8.811-3.46-13.364-1.384-5.445-2.867-11.088-4.35-16.829 6.03.297 12.061.693 17.993 1.089zm7.019 30.49c2.274 9.899 4.35 19.303 6.228 28.411l-16.312-.594c-2.076-9.108-4.448-18.512-7.019-28.411 5.734.198 11.468.396 17.103.594zm6.426 29.302a480.606 480.606 0 014.251 23.56c-5.24-.099-10.479-.198-15.719-.198a511.518 511.518 0 00-4.844-23.857c5.437.198 10.874.396 16.312.495zm4.448 24.451c1.187 7.622 2.077 15.047 2.67 22.372-5.141 0-10.183-.099-15.324-.099a311.841 311.841 0 00-2.965-22.471c5.14 0 10.38.099 15.619.198zm2.67 23.164c.494 6.831.692 13.661.593 20.492h-15.225c.099-6.831-.197-13.661-.79-20.492h15.422zm.395 41.775a266.927 266.927 0 01-1.483 17.522c-5.14.099-10.281.099-15.52.198.79-5.94 1.383-11.78 1.68-17.621 5.141 0 10.182 0 15.323-.099zm-1.582 18.413a298.84 298.84 0 01-2.669 17.819c-5.239.099-10.578.297-15.817.396a313.75 313.75 0 002.965-18.116c5.141 0 10.282 0 15.521-.099zm-2.867 18.71a741.722 741.722 0 01-3.262 17.323l-16.312.594c1.384-5.939 2.57-11.78 3.757-17.422 5.338-.198 10.578-.396 15.817-.495zm-3.46 18.115c-1.384 6.831-2.965 13.859-4.646 21.185-5.536.198-11.171.297-16.806.396 1.78-7.227 3.559-14.255 5.14-21.086 5.537-.099 10.974-.297 16.312-.495zm-4.745 22.076c-1.186 5.345-2.471 10.691-3.757 16.334-5.733.198-11.566.495-17.3.693 1.483-5.643 2.867-11.187 4.25-16.532 5.636-.198 11.172-.297 16.807-.495zm-8.304 36.33c-1.285 5.841-2.67 11.879-3.955 18.116-6.228.495-12.456 1.089-18.684 1.584 1.582-6.435 3.163-12.572 4.646-18.611 6.03-.396 11.962-.693 17.993-1.089zm-4.152 18.908c-1.285 6.038-2.57 12.374-3.955 18.808-6.426.693-12.852 1.485-19.475 2.079 1.582-6.632 3.065-13.166 4.646-19.402a576.8 576.8 0 0018.784-1.485zm-4.152 19.699c-1.187 6.138-2.472 12.474-3.658 18.908-6.624.99-13.445 1.881-20.266 2.772 1.482-6.732 2.866-13.265 4.35-19.601a565.923 565.923 0 0019.574-2.079zm-3.757 19.799a1852.867 1852.867 0 00-3.262 19.007 4469.34 4469.34 0 01-21.058 3.563 763 763 0 014.054-19.699c6.821-.891 13.642-1.881 20.266-2.871zm-3.361 19.898c-.989 6.434-2.076 12.968-2.966 19.699-7.217 1.485-14.434 2.97-21.848 4.455 1.285-7.029 2.471-13.958 3.756-20.591a4606.89 4606.89 0 0021.058-3.563zm.89-.198a732.273 732.273 0 0022.144-4.158c-.791 6.039-1.582 12.275-2.274 18.71-7.513 1.682-15.125 3.464-22.935 5.048.988-6.632 1.977-13.166 3.064-19.6zm22.935-4.257c7.612-1.485 15.027-2.97 22.441-4.455-.593 5.742-1.087 11.681-1.582 17.72-7.513 1.881-15.224 3.663-23.133 5.445.791-6.435 1.582-12.671 2.274-18.71zm23.43-4.653c7.612-1.584 15.224-3.168 22.737-4.751-.395 5.444-.692 10.988-.988 16.63-7.612 1.98-15.422 3.861-23.331 5.841.395-6.138.989-11.978 1.582-17.72zm23.528-5.048c7.514-1.584 15.027-3.267 22.442-4.851-.198 5.049-.396 10.295-.594 15.542-7.513 1.98-15.125 3.861-22.935 5.84.395-5.543.692-11.087 1.087-16.531zm23.331-5.049c8.107-1.782 16.016-3.465 23.924-5.148-.098 4.752-.197 9.603-.197 14.453-7.613 1.98-15.422 3.96-23.331 6.039-.297.099-.593.198-.989.297.198-5.346.297-10.493.593-15.641zm24.715-5.346a1338.578 1338.578 0 0124.32-5.048c0 4.454 0 8.81.099 13.364-8.107 1.98-16.312 3.959-24.616 6.137.098-4.85.098-9.701.197-14.453zm25.21-5.246c8.6-1.683 17.003-3.366 25.406-4.851 0 4.059.099 8.216.198 12.374-8.403 1.782-16.905 3.762-25.506 5.841-.098-4.455-.098-8.91-.098-13.364zm26.197-4.95a1351.899 1351.899 0 0125.407-4.158c.099 3.762.099 7.623.297 11.484a642.03 642.03 0 00-25.506 5.048c-.099-4.257-.198-8.315-.198-12.374zm26.297-4.257c9.392-1.386 18.783-2.474 28.076-3.365 0 3.563-.099 7.127-.099 10.691-9.194 1.089-18.387 2.475-27.68 4.059a221.348 221.348 0 01-.297-11.385zm28.867-3.464c8.502-.792 17.004-1.386 25.506-1.683v10.295a368.825 368.825 0 00-25.506 2.079v-10.691zm26.297-1.683c7.612-.297 15.224-.297 22.837-.099 1.977-.099 3.954-.099 5.931-.099v10.196c-1.582 0-3.065.099-4.646.099-8.107-.297-16.114-.198-24.221.198.099-3.465.099-6.93.099-10.295zm29.658-.198c9.589-.099 19.179.198 28.768.792v10.295a352.723 352.723 0 00-28.867-.891c.099-3.465.099-6.83.099-10.196zm29.658.891c10.677.693 21.452 1.782 32.327 3.167-.099 3.564-.099 7.128-.297 10.791-10.775-1.584-21.452-2.871-32.03-3.663v-10.295zm33.118 3.266c11.468 1.485 23.034 3.366 34.799 5.445 0 3.861-.099 7.821-.198 11.78-11.764-2.475-23.331-4.652-34.799-6.434.099-3.663.198-7.227.198-10.791zm35.688 5.544a1459.515 1459.515 0 0136.282 7.128c.099 4.355.099 8.711 0 13.166-12.456-3.069-24.616-5.94-36.578-8.514.197-3.96.197-7.82.296-11.78zm37.172 7.326c12.555 2.573 25.308 5.444 38.555 8.216 1.186.297 2.471.495 3.658.792.296 4.95.494 9.899.593 15.047a24.657 24.657 0 01-2.57-.693c-13.742-3.564-27.187-7.029-40.236-10.295v-13.067zm43.102 9.206c14.533 3.168 29.362 6.335 44.389 9.404.593 5.544 1.087 11.285 1.581 17.126-15.718-3.861-30.844-7.721-45.376-11.483-.198-5.049-.396-10.097-.594-15.047zm45.179 9.602c16.609 3.366 33.613 6.732 51.21 9.702 1.087 6.335 2.175 12.77 3.262 19.501a1582.723 1582.723 0 01-52.89-12.077c-.494-5.742-.988-11.483-1.582-17.126zm-.098-.792c-.594-5.84-1.187-11.582-1.879-17.126a1585.067 1585.067 0 0049.529 7.722 2306.807 2306.807 0 013.559 19.106c-17.597-3.069-34.601-6.336-51.209-9.702zm-1.978-18.115a4237.645 4237.645 0 00-2.372-18.017c15.62 2.178 31.536 4.257 47.749 6.038 1.384 6.336 2.669 12.968 4.053 19.7-16.905-2.277-33.316-4.95-49.43-7.721zm-2.471-18.809c-.791-5.742-1.681-11.384-2.57-16.928a2821.41 2821.41 0 0046.167 4.455 1405.125 1405.125 0 014.152 18.61c-16.312-1.88-32.228-3.959-47.749-6.137zm-2.669-17.819c-.89-5.84-1.879-11.483-2.768-17.027 14.631 1.188 29.46 2.277 44.585 3.168 1.384 5.94 2.867 11.978 4.251 18.314a2809.199 2809.199 0 01-46.068-4.455zm-6.13-36.33a481.67 481.67 0 00-.889-4.95c-.594-3.663-1.286-7.226-1.879-10.79 13.841.594 27.78 1.089 41.818 1.485 1.285 5.345 2.57 10.79 3.954 16.334-14.532-.495-28.867-1.287-43.004-2.079zm39.94-14.156c14.928.396 30.053.693 45.277.792v-.198a1070.643 1070.643 0 005.339 17.026c-15.719-.198-31.339-.692-46.662-1.286-1.384-5.544-2.669-10.989-3.954-16.334zm-1.088-.891a2787.304 2787.304 0 01-41.719-1.485c-1.186-7.128-2.372-14.057-3.46-20.888 13.445.396 26.89.792 40.434 1.287 1.384 6.831 3.065 13.859 4.745 21.086zm-45.376-23.264c-.89-5.741-1.681-11.384-2.472-16.927 13.05.297 26.198.594 39.445.891.989 5.642 2.175 11.384 3.46 17.224-13.544-.396-27.087-.792-40.433-1.188zm-2.571-17.719c-.791-5.841-1.384-11.682-1.977-17.423 12.852.099 25.704.198 38.555.396.692 5.84 1.681 11.879 2.768 17.918a2637.839 2637.839 0 00-39.346-.891zm-1.977-18.314c-.494-5.841-.89-11.582-1.087-17.324 12.752 0 25.407.099 38.16.198.296 5.841.79 11.681 1.482 17.522-12.95-.099-25.802-.198-38.555-.396zm-1.285-38.508c-.099-6.732.099-13.463.494-20.294 12.753-.099 25.506-.099 38.259-.198-.593 6.831-.89 13.661-.791 20.492h-37.962zm.593-21.185a447.197 447.197 0 012.076-22.075c13.05-.198 26-.297 39.05-.495-1.285 7.622-2.175 15.047-2.867 22.372-12.753.099-25.506.198-38.259.198zm2.175-22.867c.89-7.524 1.977-15.047 3.262-22.868 13.445-.396 26.89-.791 40.434-1.286a490.238 490.238 0 00-4.548 23.56c-13.148.297-26.197.396-39.148.594zm3.361-23.758a2411.747 2411.747 0 014.745-28.016c13.94-.692 28.077-1.286 42.312-1.781-2.372 9.998-4.646 19.402-6.623 28.609-13.544.396-26.989.891-40.434 1.188zm4.844-28.906c.198-.891.297-1.881.495-2.772a2704.095 2704.095 0 004.448-25.639c14.73-1.188 29.559-2.376 44.685-3.366a1156.556 1156.556 0 01-4.745 19.501c-.89 3.564-1.681 7.029-2.472 10.395-14.236.594-28.373 1.188-42.411 1.881zm5.042-29.203a1169.918 1169.918 0 005.339-34.45c15.619-2.178 31.536-4.158 47.848-6.039-2.768 13.167-5.635 25.541-8.403 37.123-15.126.99-30.054 2.178-44.784 3.366zm5.536-35.341c1.78-12.968 3.46-26.53 4.844-40.983 16.609-3.564 33.909-7.127 51.803-10.394-2.768 16.136-5.635 31.282-8.7 45.438-16.41 1.781-32.327 3.86-47.947 5.939zm-.889.099c-14.335 1.98-28.472 4.059-42.411 6.138 1.087-11.78 1.977-24.155 2.471-37.024 14.335-3.266 29.263-6.632 44.685-9.998-1.285 14.354-2.966 28.015-4.745 40.884zm-43.301 6.237c-1.878.297-3.757.594-5.635.792-11.863 1.781-23.628 3.464-35.194 5.147.593-10.79.89-21.877.988-33.36 13.149-2.871 26.495-5.94 40.335-9.108.692-.198 1.384-.297 2.076-.495a798.062 798.062 0 01-2.57 37.024zm-41.719 6.137a2358.478 2358.478 0 01-35.688 4.752c.296-9.998.296-20.195.197-30.589 11.962-2.277 24.023-4.752 36.381-7.424 0 11.384-.396 22.471-.89 33.261zm-36.479 4.851c-11.567 1.386-23.035 2.673-34.502 3.663.099-9.405.099-18.908-.099-28.51a743.025 743.025 0 0034.7-5.643c.197 10.295.099 20.492-.099 30.49zm-35.392 3.663c-10.875.99-21.65 1.683-32.426 2.177 0-9.107.099-18.214.099-27.322a449.724 449.724 0 0032.228-3.266c.297 9.503.297 19.006.099 28.411zm-33.217 2.177c-9.589.396-19.179.594-28.768.495V121.86h4.449c8.106 0 16.311-.297 24.418-.792-.099 9.306-.099 18.413-.099 27.421zm-29.658.594c-1.878 0-3.658 0-5.536-.099-7.711.198-15.521.099-23.232-.099 0-9.008 0-18.115-.099-27.223 4.745.198 9.491.297 14.236.297 3.262 0 6.623 0 9.886-.099 1.582 0 3.163.099 4.646.099.099 9.009.099 18.017.099 27.124zm-29.559-.198c-8.403-.198-16.905-.593-25.407-1.088-.099-9.207-.099-18.512-.198-27.916 8.502.89 17.004 1.484 25.506 1.781.099 9.108.099 18.215.099 27.223zm-25.506-29.895c-.099-9.504-.099-19.106-.198-28.807h-.889c.099 9.602.197 19.204.197 28.708a716.108 716.108 0 01-27.878-3.564 547.954 547.954 0 011.483-30.787c17.893 4.257 35.392 7.226 52.692 8.414 0 9.306 0 18.611.099 27.916-8.502-.396-17.004-.989-25.506-1.88zm-55.955-7.524c-.197 10.493-.098 20.789.198 30.886-8.205-.99-16.509-2.079-24.912-3.267-.495-10.691-.791-21.58-.791-32.866 8.699 1.98 17.102 3.663 25.505 5.247zm-25.505 27.619c-7.909-1.089-15.818-2.178-23.826-3.366a771.942 771.942 0 01-1.384-34.845 1591.148 1591.148 0 0024.419 5.345c0 11.187.296 22.175.791 32.866zm-24.715-3.564l-20.464-2.969c-.89-.099-1.681-.297-2.571-.396-.988-11.88-1.878-24.155-2.372-37.024.197 0 .395.1.593.1 8.008 1.781 15.817 3.662 23.529 5.345.098 12.077.593 23.758 1.285 34.944zm-23.924-3.464c-7.118-1.089-14.236-2.079-21.453-3.168a847.886 847.886 0 01-3.46-39.102c7.711 1.682 15.224 3.464 22.54 5.147.494 12.869 1.384 25.243 2.373 37.123zm-22.343-3.267c-7.118-.99-14.334-2.079-21.551-3.069-1.78-12.968-3.46-26.728-4.844-41.181 7.81 1.683 15.422 3.366 22.935 5.049a865.057 865.057 0 003.46 39.201zm-22.441-3.267c-7.019-.99-14.137-1.881-21.255-2.871-2.274-13.562-4.35-27.916-6.228-43.16 7.711 1.583 15.224 3.167 22.738 4.751 1.285 14.552 2.966 28.312 4.745 41.28zm-22.145-2.871c-6.722-.891-13.445-1.683-20.365-2.475-2.768-14.156-5.536-29.103-8.007-45.14 7.513 1.386 14.829 2.87 22.144 4.355 1.879 15.245 3.955 29.599 6.228 43.26zm-21.156-2.673c-6.425-.791-12.95-1.484-19.475-2.177-3.361-14.552-6.722-30.094-9.886-46.824 7.217 1.188 14.335 2.475 21.255 3.762 2.57 16.136 5.24 31.183 8.106 45.239zM57.736 70.186c-3.36-17.918-6.524-37.122-9.391-57.91 8.007 2.078 15.916 4.256 23.627 6.434 1.977 19.7 4.35 38.112 7.02 55.238-6.921-1.287-14.039-2.574-21.256-3.762zm-.89-.198c-7.018-1.188-14.038-2.277-21.254-3.366-4.053-18.61-8.107-38.706-11.666-60.484 8.008 1.88 15.917 3.86 23.628 5.84a1105.378 1105.378 0 009.293 58.01zm.198.891c3.164 16.73 6.525 32.371 9.886 46.923-6.426-.693-12.852-1.287-19.376-1.881A1220.845 1220.845 0 0135.79 67.414c7.117 1.188 14.235 2.277 21.254 3.465zm10.084 47.814c3.164 13.562 6.228 26.134 9.293 38.013-5.932-.297-11.962-.693-17.993-.891a2146.646 2146.646 0 01-10.676-39.003c6.524.594 12.95 1.188 19.376 1.881zm9.49 38.805a1050.625 1050.625 0 004.45 17.126c1.186 4.454 2.273 8.81 3.36 13.166-5.635-.198-11.27-.297-17.003-.396-1.483-5.346-3.065-10.79-4.746-16.532-1.285-4.653-2.669-9.404-4.053-14.354 6.03.396 12.061.693 17.993.99zm8.008 31.183c2.57 9.899 4.844 19.303 7.02 28.411l-16.313-.594c-2.273-8.91-4.844-18.314-7.612-28.213 5.635.099 11.27.198 16.905.396zm7.217 29.203c1.878 8.216 3.559 16.135 4.844 23.857-5.24-.099-10.479-.198-15.62-.297-1.483-7.821-3.361-15.839-5.437-24.253 5.338.396 10.776.594 16.213.693zm4.943 24.748c1.285 7.622 2.373 15.146 2.966 22.471-5.14 0-10.183-.099-15.324-.099-.692-7.424-1.878-14.948-3.36-22.669 5.338.198 10.577.198 15.718.297zm3.065 23.362c.593 6.93.889 13.76.791 20.492H85.416a180.313 180.313 0 00-.89-20.591c5.141.099 10.282.099 15.324.099zm.494 41.973c-.297 5.841-.89 11.681-1.68 17.621-5.141.099-10.282.099-15.423.198a224.936 224.936 0 001.879-17.72c5.041 0 10.083-.099 15.224-.099zm-1.878 18.512a313.75 313.75 0 01-2.966 18.116c-5.24.099-10.578.297-15.818.396 1.285-6.237 2.472-12.375 3.361-18.314 5.141-.099 10.282-.198 15.423-.198zm-3.164 18.908c-1.087 5.741-2.373 11.483-3.757 17.521l-16.311.594c1.581-6.038 2.965-11.879 4.152-17.62 5.437-.198 10.677-.297 15.916-.495zM91.447 363.7a802.978 802.978 0 01-5.141 20.987l-16.707.297c1.977-7.128 3.855-14.057 5.536-20.69l16.312-.594zm-5.339 21.878c-1.384 5.345-2.768 10.889-4.25 16.532-5.735.198-11.469.396-17.301.495a1241 1241 0 004.745-16.73c5.635 0 11.171-.099 16.806-.297zM81.66 403l-.593 2.376c-1.384 5.247-2.768 10.791-4.25 16.433-5.932.297-11.864.594-17.894.891 1.285-4.653 2.57-9.107 3.855-13.562.495-1.881 1.088-3.762 1.582-5.544 5.734-.198 11.567-.396 17.3-.594zm-5.041 19.601c-1.483 6.039-3.065 12.176-4.647 18.611-6.13.495-12.357.891-18.586 1.287a1213.07 1213.07 0 015.339-19.007c5.932-.297 11.863-.594 17.894-.891zm-4.943 19.403c-1.582 6.236-3.065 12.77-4.647 19.402a612.051 612.051 0 01-19.376 1.782c1.78-6.83 3.559-13.562 5.338-19.897 6.327-.297 12.555-.792 18.685-1.287zm-4.844 20.293c-1.483 6.336-2.966 12.869-4.35 19.7-6.624.891-13.346 1.683-20.168 2.475 1.68-7.029 3.46-13.76 5.14-20.294 6.526-.594 13.05-1.188 19.377-1.881zm-4.548 20.591c-1.384 6.434-2.67 12.968-4.053 19.699-6.92 1.089-13.84 2.178-20.959 3.168 1.582-7.028 3.164-13.859 4.844-20.392 6.822-.792 13.544-1.584 20.168-2.475zm-4.251 20.59a867.74 867.74 0 00-3.757 20.591c-7.216 1.386-14.433 2.673-21.848 3.96 1.483-7.326 3.065-14.453 4.647-21.383 7.118-.99 14.137-1.98 20.958-3.168zm-3.954 21.482c-1.187 6.731-2.274 13.661-3.46 20.788-7.415 1.683-15.027 3.366-22.738 4.851 1.384-7.424 2.867-14.651 4.25-21.679 7.514-1.188 14.83-2.574 21.947-3.96zm-3.46 21.679c-1.088 6.93-2.077 13.958-3.065 21.284-7.711 1.98-15.62 3.96-23.628 5.84 1.285-7.622 2.57-15.047 3.955-22.273 7.612-1.485 15.224-3.069 22.738-4.851zm.79-.198c7.711-1.782 15.324-3.563 22.738-5.444-.79 6.533-1.582 13.265-2.274 20.194-7.71 2.178-15.62 4.356-23.627 6.435 1.087-7.128 2.175-14.255 3.163-21.185zm.198-.891c1.087-7.127 2.274-14.057 3.46-20.788a716.294 716.294 0 0021.947-4.455c-.89 6.435-1.78 12.968-2.57 19.799-7.514 1.881-15.126 3.761-22.837 5.444zm26.198-25.342c7.81-1.683 15.422-3.366 22.935-5.048a517.598 517.598 0 00-1.78 18.61c-7.71 2.079-15.619 4.158-23.725 6.138.79-6.732 1.68-13.265 2.57-19.7zm23.825-5.246c7.81-1.782 15.521-3.663 23.133-5.544a489.6 489.6 0 00-1.186 17.522c-7.81 2.178-15.719 4.454-23.726 6.632a496.747 496.747 0 011.779-18.61zm24.023-5.742c7.909-1.98 15.719-3.861 23.331-5.841a434.362 434.362 0 00-.593 16.334c-7.81 2.277-15.719 4.653-23.924 6.93.296-5.94.692-11.78 1.186-17.423zm24.122-6.039c7.81-1.979 15.422-3.959 22.935-5.939-.098 4.949-.197 9.998-.197 15.146-7.613 2.277-15.422 4.652-23.331 7.028.197-5.543.395-10.889.593-16.235zm23.825-6.137l1.186-.297c7.81-1.98 15.521-4.059 23.134-5.94 0 4.554.099 9.306.197 13.958-7.81 2.376-15.817 4.752-23.924 7.227-.197.099-.494.099-.692.198-.099-5.148 0-10.197.099-15.146zm25.111-6.435c8.304-2.079 16.509-4.157 24.616-6.137.098 4.256.197 8.513.395 12.869-8.205 2.277-16.411 4.751-24.913 7.226 0-4.751-.098-9.404-.098-13.958zm25.11 7.623c.198 4.157.395 8.414.692 12.671h.099c-8.304 2.673-16.708 5.543-25.209 8.513-.198-4.751-.297-9.404-.396-13.958 8.304-2.574 16.609-4.949 24.814-7.226zm.791-.297c8.699-2.376 17.201-4.752 25.605-6.831.197 3.861.395 7.623.692 11.582-8.404 2.475-16.906 5.148-25.605 7.92-.297-4.257-.494-8.415-.692-12.671zm0-.792c-.198-4.356-.297-8.613-.396-12.869 8.601-2.079 17.103-4.059 25.506-5.841.099 3.96.297 7.92.495 11.879a705.458 705.458 0 00-25.605 6.831zm25.901-18.908a643.857 643.857 0 0125.506-5.049c.099 3.663.297 7.326.494 11.088-8.403 1.683-16.905 3.662-25.506 5.84-.197-4.058-.296-8.018-.494-11.879zm26.396-5.148c9.293-1.583 18.486-2.969 27.68-4.058 0 3.465-.098 7.028-.098 10.493-8.898 1.188-17.993 2.772-27.088 4.554-.198-3.663-.395-7.326-.494-10.989zm28.471-4.157a373.896 373.896 0 0125.506-2.079v10.196c-8.502.396-17.004 1.287-25.605 2.376.099-3.564.099-7.028.099-10.493zm26.396-2.178c8.106-.396 16.114-.396 24.221-.198 1.581 0 3.064-.099 4.646-.099v10.097c-1.977 0-3.954.099-5.932.099-7.612-.297-15.323-.198-22.935.198v-10.097zm29.658-.297c9.589-.099 19.179.198 28.867.891v10.493a282.63 282.63 0 00-28.867-1.188v-10.196zm29.757.99c10.578.792 21.255 2.079 31.931 3.663-.098 3.761-.296 7.424-.494 11.186-10.578-1.881-21.057-3.465-31.437-4.356v-10.493zm32.821 3.861c11.468 1.782 23.035 3.959 34.799 6.434-.099 4.059-.297 8.217-.494 12.374-11.765-2.969-23.331-5.543-34.799-7.622.198-3.762.296-7.524.494-11.186zm35.59 6.533c11.962 2.574 24.122 5.445 36.578 8.514 0 4.553-.099 9.206-.297 13.958-12.555-3.663-24.715-7.029-36.776-9.999.198-4.157.396-8.315.495-12.473zm37.468 8.712a4830.86 4830.86 0 0140.038 10.196c.89.198 1.878.495 2.768.693.198 5.246.198 10.592.296 16.037-1.68-.495-3.262-.99-4.943-1.485-13.148-3.96-26-7.821-38.456-11.483.099-4.653.198-9.405.297-13.958zm43.696 11.186c14.532 3.761 29.658 7.622 45.376 11.483.495 5.94.89 11.978 1.285 18.215-16.114-4.554-31.536-9.207-46.365-13.661-.099-5.445-.198-10.791-.296-16.037zm46.266 11.681a1589.797 1589.797 0 0052.989 12.077 579.663 579.663 0 012.966 20.69c-19.08-4.653-37.27-9.504-54.769-14.453a502.825 502.825 0 00-1.186-18.314zm53.681 11.285c-1.088-6.632-2.076-13.166-3.262-19.501 18.091 3.068 36.874 5.939 56.547 8.315 1.78 7.028 3.658 14.255 5.438 21.778a1024.247 1024.247 0 01-58.723-10.592zm53.088-12.077c-19.673-2.376-38.358-5.247-56.449-8.315a1755.125 1755.125 0 00-3.559-19.106c17.399 2.475 35.194 4.653 53.878 6.434l.099-.89a1176.691 1176.691 0 01-54.076-6.435 762.686 762.686 0 00-4.053-19.7c16.905 1.881 34.304 3.564 52.296 4.851a2168.937 2168.937 0 0111.864 43.161zm-12.259-44.052c-17.894-1.287-35.293-2.97-52.198-4.851a1405.125 1405.125 0 00-4.152-18.61 1284.31 1284.31 0 0049.726 3.267v-.891c-17.003-.792-33.612-1.98-49.924-3.366-1.483-6.336-2.867-12.374-4.251-18.314 15.521.891 31.339 1.683 47.453 2.178v-.891c-16.213-.495-32.031-1.188-47.651-2.178-1.384-5.939-2.866-11.78-4.152-17.324-.098-.396-.197-.792-.296-1.286 15.323.593 30.943 1.088 46.761 1.286.889 2.772 1.779 5.643 2.669 8.514 4.943 16.037 10.479 33.36 16.015 52.466zm-30.745-100.577c-14.829-.594-29.461-1.089-44.092-1.584-1.285-5.939-2.373-11.681-3.46-17.323 13.939.297 27.977.693 42.114 1.088v-.89c-14.137-.396-28.274-.792-42.213-1.089-1.087-6.138-1.977-12.078-2.768-17.918 13.84.099 27.681.297 41.62.495v-.891c-13.939-.198-27.878-.297-41.719-.495-.692-5.94-1.285-11.78-1.582-17.522 13.544.099 27.187.099 40.731.198v-.891c-13.544-.099-27.187-.099-40.731-.198-.296-5.444-.296-10.889-.098-16.235 0-1.088-.099-2.276-.099-3.365h41.027c0 .891 0 1.782.098 2.573-.889 23.561 3.658 46.923 11.172 74.047zm-11.27-77.511H598.5c-.099-6.831.197-13.562.791-20.492 13.741-.099 27.483-.099 41.224-.198-.692 7.029-1.087 13.859-.988 20.69zm1.087-21.482c-13.741.099-27.483.198-41.225.198.594-7.325 1.582-14.75 2.867-22.372 14.039-.198 28.077-.396 42.115-.693-1.681 7.82-2.966 15.443-3.757 22.867zm-38.259-22.966c1.285-7.623 2.867-15.542 4.548-23.659 14.433-.495 28.966-.99 43.597-1.584a400.663 400.663 0 00-6.03 24.55c-14.038.198-28.077.495-42.115.693zm63.172-74.344c-5.536 17.621-10.578 33.46-14.631 48.309-14.632.594-29.263 1.089-43.697 1.584 1.978-9.108 4.251-18.611 6.624-28.609 14.631-.495 29.361-.792 44.388-.99v-.891c-14.829.099-29.559.495-44.091.891.79-3.366 1.581-6.732 2.471-10.197a1187.168 1187.168 0 004.745-19.798c15.719-.99 31.636-1.782 47.947-2.277v-.891c-16.213.495-32.129 1.287-47.65 2.277 2.768-11.582 5.635-23.956 8.403-37.221 16.806-1.881 34.008-3.564 51.803-4.752-5.833 19.303-11.369 36.627-16.312 52.565zm16.312-53.258c-17.795 1.287-35.096 2.97-51.902 4.752 2.966-14.156 5.932-29.302 8.7-45.438 18.289-3.366 37.171-6.435 56.844-9.009a1297.707 1297.707 0 01-13.642 49.695zm13.84-50.586c-19.673 2.574-38.555 5.643-56.844 9.009 2.965-17.423 5.635-36.133 7.908-56.228h-.395a968.636 968.636 0 0163.666-15.542 1431.806 1431.806 0 01-14.335 62.761zM533.647 52.962c33.909-11.78 70.882-24.649 112.107-36.231-2.274 20.095-4.943 38.805-7.909 56.228-17.993 3.267-35.194 6.83-51.901 10.394 1.384-15.344 2.57-31.579 3.163-49.001h-.89c-.593 17.521-1.779 33.855-3.163 49.2-15.521 3.365-30.449 6.73-44.784 9.997.593-13.463.791-27.52.495-42.369h-.89a668.139 668.139 0 01-.494 42.567c-.791.198-1.582.396-2.373.495-13.742 3.168-27.088 6.237-40.137 9.009 0-11.88-.198-24.155-.989-36.925h-.889c.692 12.87.988 25.144.988 37.024-12.357 2.672-24.517 5.246-36.479 7.424-.198-10.691-.593-21.58-1.384-32.766l-.89.099c.791 11.186 1.186 22.075 1.384 32.766a768.698 768.698 0 01-34.799 5.643c-.197-9.9-.593-19.997-1.285-30.094 35.194-7.029 71.476-19.7 111.119-33.46zM423.319 117.01c-10.874 1.485-21.551 2.574-32.228 3.266 0-9.404.099-18.808.099-28.311 10.182-1.09 20.365-2.871 30.745-4.95.791 10.097 1.186 20.095 1.384 29.995zm-76.715-23.56c2.966 0 5.931-.1 8.897-.199 11.567.495 23.133 0 34.898-1.287 0 9.504-.099 18.908-.099 28.312-9.589.594-19.179.891-28.867.792v-27.52h-.89v27.421c-1.582 0-3.163-.099-4.646-.099-8.008.198-16.114.198-24.122-.099 0-9.305 0-18.511-.099-27.817 5.042.396 9.985.495 14.928.495zM224.611 69.096h-.099c-.791 12.473-1.186 24.55-1.186 36.232-8.008-1.683-16.115-3.564-24.419-5.346-.197-12.374 0-25.144.593-38.41h-.889c-.593 13.266-.692 25.937-.593 38.212a1501.045 1501.045 0 01-23.331-5.346c-.297-.099-.495-.099-.791-.198-.495-13.166-.593-26.827-.297-41.18h-.89c-.296 14.254-.197 27.915.297 40.982-7.415-1.683-14.928-3.365-22.639-5.147-.89-14.255-1.483-29.302-1.483-45.141h-.89c.099 15.839.594 30.787 1.483 44.943a2878.97 2878.97 0 00-22.935-5.049 851.036 851.036 0 01-3.065-48.407h-.89a840.85 840.85 0 003.065 48.11 2960.322 2960.322 0 00-22.738-4.752 896.61 896.61 0 01-4.844-51.872l-.89.1a896.58 896.58 0 004.845 51.673c-7.316-1.485-14.632-2.97-22.145-4.355-2.67-17.126-5.14-35.539-7.118-55.238 38.259 10.988 72.662 22.966 104.495 34.053 16.411 5.643 32.031 11.088 47.354 16.136zM1.089 1.09c7.414 1.584 14.73 3.168 21.947 4.85A1278.455 1278.455 0 0034.7 66.425a608.358 608.358 0 00-19.377-2.673C10.48 44.547 5.636 23.758 1.09 1.09zm14.433 63.553c6.525.891 12.95 1.782 19.377 2.673a1221.012 1221.012 0 0011.764 48.507c-5.734-.495-11.566-.99-17.4-1.386-4.547-15.344-9.193-31.876-13.74-49.794zm13.94 50.685c5.832.396 11.665.891 17.399 1.386 3.658 13.859 7.217 26.827 10.677 38.904-5.24-.198-10.578-.396-15.917-.594a1468.438 1468.438 0 01-12.16-39.696zm16.114 52.367c-1.187-3.861-2.472-7.721-3.658-11.78 5.338.198 10.677.396 15.916.594 1.384 4.95 2.768 9.899 4.152 14.552 1.582 5.544 3.164 10.988 4.647 16.235-4.943-.099-9.886-.198-14.928-.198-1.977-6.237-4.053-12.671-6.13-19.403zm21.255 20.492c2.767 9.899 5.338 19.303 7.612 28.213-4.647-.198-9.293-.297-13.94-.495v.891c4.746.198 9.392.396 14.137.495 2.076 8.414 3.955 16.432 5.438 24.253-4.548-.099-9.095-.099-13.643-.198-3.46-16.334-8.502-33.757-14.631-53.258 5.14 0 10.084 0 15.026.099zm4.646 101.764c.494-15.64-1.285-31.182-4.745-47.813 4.547.099 9.095.099 13.642.198a273.199 273.199 0 013.362 22.669c-4.35 0-8.601 0-12.951-.099v.891c4.35 0 8.7 0 13.05.099.691 6.93.988 13.76.89 20.591h-13.05v.891h13.05c0 .891 0 1.782-.1 2.573.198 5.742.1 11.484-.296 17.225-4.35 0-8.799 0-13.149.099.297-5.741.495-11.483.297-17.324zm12.753 18.116c-.396 5.841-.989 11.78-1.879 17.72-4.448.099-8.897.099-13.445.099.99-6.039 1.681-11.978 2.175-17.819H84.23zm-15.422 18.71c4.448-.099 8.897-.099 13.445-.099-.89 6.038-2.076 12.077-3.362 18.314-4.547.099-9.194.297-13.84.396 1.483-6.336 2.67-12.573 3.757-18.611zm-23.232 85.53c7.81-24.847 14.63-46.329 19.277-66.029 4.647-.099 9.194-.297 13.84-.395-1.186 5.741-2.669 11.582-4.151 17.62-4.647.198-9.293.297-13.94.495v.891c4.548-.198 9.095-.297 13.643-.495-1.68 6.633-3.559 13.562-5.536 20.69-4.647.099-9.392.099-14.038.099v.891c4.646 0 9.194-.099 13.84-.099a923.272 923.272 0 01-4.745 16.729c-4.943.099-9.985.198-15.027.297v.891c4.943-.099 9.886-.198 14.73-.297-.494 1.782-.988 3.465-1.483 5.346-1.285 4.455-2.57 9.107-3.954 13.76-5.24.198-10.578.396-15.916.594 1.186-3.762 2.273-7.424 3.46-10.988zm-3.757 11.78c5.338-.198 10.677-.396 15.916-.594a1213.07 1213.07 0 00-5.338 19.007c-5.536.297-11.072.693-16.608.891 2.075-6.633 4.053-13.067 6.03-19.304zm10.38 19.304a1117.949 1117.949 0 00-5.338 19.996c-5.734.495-11.567.99-17.4 1.386 2.077-7.028 4.153-13.859 6.13-20.392 5.536-.297 11.072-.594 16.608-.99zm-22.935 21.778v.396c5.832-.396 11.566-.891 17.3-1.386-1.68 6.534-3.46 13.364-5.14 20.393-6.031.693-12.061 1.287-18.19 1.881 1.976-7.326 4.052-14.453 6.03-21.284zm-6.327 22.174c6.129-.593 12.258-1.286 18.289-1.88-1.582 6.632-3.263 13.463-4.844 20.491-6.228.891-12.654 1.683-19.08 2.475a1552.888 1552.888 0 015.635-21.086zm-5.833 21.977c6.426-.792 12.852-1.584 19.08-2.475-1.582 6.93-3.164 14.057-4.646 21.383-6.624 1.088-13.248 2.177-19.97 3.266a806.453 806.453 0 015.536-22.174zm-5.734 23.065a655.22 655.22 0 0020.069-3.266c-1.483 7.028-2.867 14.255-4.251 21.778-6.92 1.386-13.84 2.772-20.959 4.059 1.582-7.821 3.362-15.344 5.141-22.571zm-5.437 23.363c7.118-1.287 14.137-2.574 20.958-4.059-1.384 7.226-2.67 14.651-3.954 22.273a1048.06 1048.06 0 01-21.947 4.85c1.68-7.82 3.361-15.542 4.943-23.065zm66.928 5.246c.692-6.929 1.483-13.661 2.274-20.194 8.106-1.98 16.015-4.059 23.726-6.138-.494 6.237-.989 12.572-1.483 19.007-8.007 2.574-16.114 4.949-24.517 7.325zm26.89-26.53c8.106-2.178 16.015-4.356 23.825-6.632-.297 5.84-.593 11.78-.791 17.818-8.008 2.574-16.114 5.247-24.418 7.821.296-6.534.79-12.869 1.384-19.007zm24.616-6.83c8.106-2.376 16.114-4.653 23.924-7.029-.099 5.445-.198 10.889-.297 16.532-8.007 2.772-16.114 5.445-24.517 8.216.297-6.038.593-11.978.89-17.719zm24.814-7.326c7.909-2.376 15.718-4.752 23.43-7.028 0 5.048 0 10.097.197 15.245-7.81 2.672-15.718 5.444-23.825 8.216-.099-5.445 0-10.988.198-16.433zm28.175 6.732c-1.285.396-2.571.891-3.856 1.386-.099-5.148-.197-10.296-.197-15.245.296-.099.692-.198.988-.297a3591.293 3591.293 0 0023.727-7.128c.098 4.653.197 9.306.395 13.958-6.821 2.376-13.84 4.752-21.057 7.326zm74.342-24.551c-.296-3.86-.494-7.721-.692-11.483 8.601-2.178 17.103-4.058 25.506-5.84.198 3.464.396 7.028.692 10.493a468.577 468.577 0 00-25.506 6.83zm26.396-7.028c-.297-3.465-.494-7.029-.692-10.493 9.095-1.881 18.091-3.366 26.989-4.554 0 3.267-.099 6.534-.099 9.8-8.601 1.287-17.301 3.168-26.198 5.247zm27.186-5.445c0-3.266.099-6.533.099-9.701a282.923 282.923 0 0125.605-2.376v9.207c-8.601.494-17.103 1.484-25.704 2.87zm26.396-3.068v-9.207c7.711-.396 15.323-.495 22.936-.198 1.977-.099 3.954-.099 5.931-.099v9.009c-1.68 0-3.361.099-5.042.099-7.909-.198-15.817-.099-23.825.396zm32.822-.495h-2.966v-9.009c9.589-.099 19.179.396 28.867 1.287v9.206a228.725 228.725 0 00-25.901-1.484zm26.692 1.583v-9.206c10.38.99 20.859 2.475 31.437 4.356l-.593 9.8c-10.38-2.178-20.662-3.861-30.844-4.95zm31.635 5.148l.593-9.8c11.468 2.079 23.034 4.652 34.799 7.622-.198 3.663-.396 7.326-.692 10.988-11.666-3.464-23.232-6.434-34.7-8.81zm35.589 9.008c.297-3.761.495-7.424.692-11.087 12.061 2.97 24.221 6.435 36.776 9.999-.099 4.157-.296 8.414-.494 12.671-12.654-4.158-24.913-8.118-36.974-11.583zm75.233 24.848c-12.852-4.455-25.308-8.811-37.468-12.869.198-4.257.395-8.514.494-12.671 12.456 3.563 25.209 7.424 38.259 11.384 1.68.495 3.46 1.089 5.141 1.584 0 4.85 0 9.8-.099 14.849-2.076-.792-4.152-1.584-6.327-2.277zm7.216 2.475c.099-5.049.099-9.999.099-14.948 14.829 4.454 30.35 9.107 46.464 13.661.297 5.642.594 11.483.791 17.323-16.41-5.345-32.129-10.79-47.354-16.036zm48.244 16.432c-.198-5.939-.494-11.681-.791-17.422 17.498 4.949 35.689 9.899 54.769 14.453.889 6.533 1.68 13.265 2.471 20.095-19.673-5.444-38.456-11.285-56.449-17.126zm57.339 17.423c-.791-6.929-1.582-13.562-2.472-20.194 19.476 4.652 39.841 9.107 61.195 12.869 1.581 7.424 3.262 14.948 4.844 22.768-22.343-4.554-43.499-9.899-63.567-15.443z" fill="#fff" fill-opacity=".3"/></g><defs><clipPath id="clip0"><path fill="#fff" d="M0 0h711v580H0z"/></clipPath></defs></svg>