<svg width="31" height="31" fill="none" xmlns="http://www.w3.org/2000/svg"><path d="M30.803 14.897c-.277-.379-6.876-9.276-15.303-9.276C7.072 5.62.473 14.518.197 14.897a1.02 1.02 0 000 1.206c.276.379 6.875 9.276 15.303 9.276 8.427 0 15.026-8.897 15.303-9.276a1.02 1.02 0 000-1.206zM15.5 23.335c-6.208 0-11.585-5.905-13.176-7.836 1.59-1.932 6.955-7.834 13.176-7.834 6.207 0 11.584 5.904 13.176 7.836-1.59 1.932-6.955 7.834-13.176 7.834z" fill="#fff"/><path d="M15.5 9.368A6.139 6.139 0 009.368 15.5a6.139 6.139 0 006.132 6.132 6.139 6.139 0 006.132-6.132A6.139 6.139 0 0015.5 9.368zm0 10.22a4.092 4.092 0 01-4.088-4.088 4.092 4.092 0 014.088-4.088 4.092 4.092 0 014.088 4.088 4.092 4.092 0 01-4.088 4.088z" fill="#fff"/></svg>