<svg width="207" height="62" fill="none" xmlns="http://www.w3.org/2000/svg"><path d="M33.153 15.614v15.98c0 .73-.551 1.278-1.286 1.278H29.94c-.092 0-.184.091-.184.182v13.423c.46 0 .918.092 1.47.092 8.632 0 15.611-6.94 15.611-15.523 0-7.944-5.969-14.519-13.683-15.432zm-.367 23.924a1.934 1.934 0 01-1.93-1.918c0-1.096.92-1.917 1.93-1.917 1.102 0 1.928.913 1.928 1.917.092 1.004-.826 1.918-1.928 1.918zm4.591 0a1.934 1.934 0 01-1.928-1.918c0-1.096.918-1.917 1.928-1.917 1.102 0 1.929.913 1.929 1.917a1.934 1.934 0 01-1.929 1.918zm4.592 0a1.934 1.934 0 01-1.928-1.918c0-1.096.918-1.917 1.928-1.917 1.102 0 1.929.913 1.929 1.917a1.934 1.934 0 01-1.929 1.918z" fill="#fff" fill-opacity=".6"/><path d="M31.224 15.523c-8.632 0-15.612 6.94-15.612 15.523a15.42 15.42 0 0012.306 15.157v-13.97c0-.64.551-1.187 1.194-1.279h1.929c.092 0 .183-.091.183-.182v-15.25zm-3.03 12.783a1.934 1.934 0 01-1.929-1.917c0-1.096.919-1.918 1.929-1.918 1.102 0 1.928.913 1.928 1.918a1.934 1.934 0 01-1.928 1.917zm159.337-4.291v5.843h-7.898v-5.843h-3.949v15.522h3.949v-6.3h7.898v6.3h3.857V24.015h-3.857zM122.51 25.75c-.642-1.37-1.928-2.1-3.214-2.1s-2.571.73-3.214 2.1l-6.337 13.787h4.133l1.377-3.287h8.082l1.377 3.287h4.133L122.51 25.75zm-5.969 7.396l2.388-5.662c.092-.182.183-.182.275-.182.092 0 .276 0 .276.182l2.388 5.662h-5.327zm-40.5-11.962c-1.837 0-3.03 1.004-3.857 2.922l-5.051 11.688-5.051-11.688c-.827-1.918-2.02-2.922-3.857-2.922-1.745 0-3.49 1.187-3.49 3.835v14.427h3.857v-13.97l5.143 11.596c.643 1.644 1.837 2.648 3.398 2.648 1.653 0 2.755-1.004 3.398-2.648l5.143-11.596v14.061h3.857V25.11c0-2.648-1.745-3.926-3.49-3.926zM86.418 36.25c-.183 0-.367-.182-.367-.365v-2.74h9.735V29.95H86.05v-2.374c0-.183.184-.366.367-.366h9.643v-3.287H84.49c-1.378 0-2.296 1.096-2.296 2.283v10.866c0 1.187 1.01 2.283 2.296 2.283h11.57v-3.287h-9.643v.182zm16.164 3.287v-11.87c0-.183.183-.365.367-.365h9.643v-3.287h-11.571c-1.378 0-2.296 1.095-2.296 2.282v13.149h3.857v.091zm70.53-7.761c0-5.387-2.387-7.944-8.265-7.944h-1.378c-5.877 0-8.265 2.557-8.265 7.944 0 5.296 2.388 7.944 8.265 7.944h1.286c5.97-.091 8.357-2.648 8.357-7.944zm-8.357 4.657h-1.286c-3.214 0-4.5-1.461-4.5-4.657 0-3.104 1.102-4.657 4.5-4.657h1.286c3.306 0 4.5 1.553 4.5 4.657 0 3.196-1.194 4.657-4.5 4.657zM144.368 21.55h-7.715c-5.785 0-8.081 2.921-8.081 7.943 0 .822.092 1.553.183 2.192.643 3.56 2.756 5.752 8.174 5.752h1.745v2.01h3.857v-2.01h1.653c5.418 0 7.531-2.191 8.173-5.752.092-.64.184-1.37.184-2.192-.092-5.022-2.479-7.944-8.173-7.944zm-5.878 12.69h-1.745c-2.663 0-3.581-1.004-4.132-2.556-.184-.548-.184-1.37-.184-2.192 0-3.287 1.561-4.657 3.765-4.657h2.388v9.405h-.092zm9.919-2.465c-.552 1.552-1.562 2.557-4.133 2.557h-1.745v-9.497h2.388c2.204 0 3.765 1.37 3.765 4.657-.092.913-.092 1.644-.275 2.283z" fill="#fff" fill-opacity=".6"/></svg>