<svg width="111" height="53" fill="none" xmlns="http://www.w3.org/2000/svg"><path d="M34.717 34.313h6.9v2.19h-3.282V51.9h-3.618V34.313zM45.71 45.297l.62-8.793h.208l.62 8.793H45.71zm-4.007 6.602h3.543l.335-4.67h1.706l.337 4.67h3.54l-1.886-17.586H43.59l-1.887 17.586zm14.643-6.155v3.315c0 .447.356.577.563.577a.574.574 0 00.579-.577v-4.094c0-.547-.104-1.153-1.454-1.153h-1.468v-1.931h1.527c1.024 0 1.395-.231 1.395-1.312V37.08a.574.574 0 00-.579-.576c-.207 0-.563.115-.563.577v2.868h-3.62v-2.494c0-1.225.148-3.142 2.685-3.142h2.997c2.536 0 2.7 1.917 2.7 3.142v2.811c0 1.917-1.38 2.436-2.463 2.393v.173c2.433-.058 2.462 1.759 2.462 2.379v3.546c0 1.24-.163 3.142-2.7 3.142h-2.996c-2.537 0-2.685-1.903-2.685-3.142v-3.013h3.62zm7.135-11.431h8.382v17.586h-3.62V36.504h-1.142v15.395h-3.62V34.313zm14.375 9.672v-7.481h.475c.385 0 .667.317.667.88v5.722c0 .562-.282.88-.667.88h-.475zm-3.62 7.914h3.62v-5.982h2.077c2.522 0 2.685-1.903 2.685-3.143v-5.319c0-1.225-.163-3.142-2.685-3.142h-5.697v17.586zm15.517-2.839a.574.574 0 01-.579.576c-.207 0-.563-.13-.563-.577V37.081c0-.462.356-.577.563-.577.342 0 .579.274.579.577v11.978zm-4.762-.303c0 1.24.163 3.142 2.685 3.142h3.012c2.521 0 2.685-1.903 2.685-3.142V37.455c0-1.225-.164-3.142-2.685-3.142h-3.012c-2.522 0-2.685 1.917-2.685 3.142v11.302zm20.16-14.444h4.717v17.586h-3.619V40.872h-.134l-1.869 11.027h-2.893l-1.854-11.027h-.133v11.027h-3.62V34.313h4.703l2.358 12.368 2.344-12.368zM30.026 10.269c-1.108-4.714-3.885-8.548-4.267-9.168-.606.88-2.82 4.267-3.947 8.015-1.23 4.194-1.41 7.913-.986 11.56.421 3.662 2.013 7.424 2.013 7.424.846 1.96 2.113 4.08 2.937 5.117 1.21-1.528 3.988-6.083 4.854-12.022.482-3.315.503-6.212-.604-10.926zM25.76 32.035c-.545-.994-1.39-2.883-1.47-5.823-.021-2.825 1.146-5.262 1.487-5.766.304.504 1.31 2.623 1.43 5.52.082 2.826-.885 5.06-1.447 6.07zm3.945-13.766c-.041 1.802-.262 3.705-.544 4.844.1-1.96-.14-4.714-.604-6.876-.463-2.148-1.773-5.752-2.818-7.41-.966 1.586-2.156 4.7-2.779 7.395-.626 2.696-.644 5.968-.644 6.948-.166-.821-.581-3.776-.464-6.732.098-2.436.685-4.958 1.007-6.111 1.229-3.85 2.619-6.314 2.88-6.703.26.389 2.011 3.43 2.92 6.616.902 3.186 1.085 6.242 1.046 8.03z" fill="#fff" fill-opacity=".6"/><path d="M27.638 34.313h-8.424v5.492c.007 0 .013-.014.02-.014 1.986-1.932 5.205-1.932 7.191 0a4.83 4.83 0 010 6.976c-.009.015-.018.015-.027.03-.01 0-.02.014-.03.028-1.98 1.903-4.567 2.854-7.154 2.854-2.599 0-5.198-.951-7.18-2.883a9.655 9.655 0 01-1.245-12.483 10.06 10.06 0 011.245-1.47c1.982-1.932 4.581-2.883 7.18-2.883V16.756c-9.987 0-18.082 7.856-18.082 17.557 0 9.701 8.095 17.572 18.082 17.572 5.207 0 9.898-2.148 13.197-5.565V34.313h-4.773z" fill="#fff" fill-opacity=".6"/></svg>